<?xml version="1.0" encoding="UTF-8" standalone="no"?>
<!-- Created with Inkscape (http://www.inkscape.org/) -->

<svg
   xmlns:dc="http://purl.org/dc/elements/1.1/"
   xmlns:cc="http://creativecommons.org/ns#"
   xmlns:rdf="http://www.w3.org/1999/02/22-rdf-syntax-ns#"
   xmlns:svg="http://www.w3.org/2000/svg"
   xmlns="http://www.w3.org/2000/svg"
   xmlns:sodipodi="http://sodipodi.sourceforge.net/DTD/sodipodi-0.dtd"
   xmlns:inkscape="http://www.inkscape.org/namespaces/inkscape"
   width="210mm"
   height="297mm"
   id="svg2"
   version="1.1"
   inkscape:version="0.47 r22583"
   sodipodi:docname="Neues Dokument 1">
  <defs
     id="defs4">
    <inkscape:path-effect
       effect="spiro"
       id="path-effect2868"
       is_visible="true" />
    <inkscape:path-effect
       effect="spiro"
       id="path-effect2864"
       is_visible="true" />
    <inkscape:path-effect
       effect="spiro"
       id="path-effect2860"
       is_visible="true" />
    <inkscape:path-effect
       effect="spiro"
       id="path-effect2856"
       is_visible="true" />
    <inkscape:path-effect
       effect="spiro"
       id="path-effect2852"
       is_visible="true" />
    <inkscape:path-effect
       effect="spiro"
       id="path-effect2848"
       is_visible="true" />
    <inkscape:path-effect
       effect="spiro"
       id="path-effect2844"
       is_visible="true" />
    <inkscape:path-effect
       effect="spiro"
       id="path-effect2832"
       is_visible="true" />
    <inkscape:path-effect
       effect="spiro"
       id="path-effect2824"
       is_visible="true" />
    <inkscape:perspective
       sodipodi:type="inkscape:persp3d"
       inkscape:vp_x="0 : 526.18109 : 1"
       inkscape:vp_y="0 : 1000 : 0"
       inkscape:vp_z="744.09448 : 526.18109 : 1"
       inkscape:persp3d-origin="372.04724 : 350.78739 : 1"
       id="perspective10" />
  </defs>
  <sodipodi:namedview
     id="base"
     pagecolor="#ffffff"
     bordercolor="#666666"
     borderopacity="1.0"
     inkscape:pageopacity="0.0"
     inkscape:pageshadow="2"
     inkscape:zoom="0.35"
     inkscape:cx="347.14286"
     inkscape:cy="520"
     inkscape:document-units="px"
     inkscape:current-layer="layer1"
     showgrid="false"
     inkscape:window-width="806"
     inkscape:window-height="674"
     inkscape:window-x="0"
     inkscape:window-y="0"
     inkscape:window-maximized="0" />
  <metadata
     id="metadata7">
    <rdf:RDF>
      <cc:Work
         rdf:about="">
        <dc:format>image/svg+xml</dc:format>
        <dc:type
           rdf:resource="http://purl.org/dc/dcmitype/StillImage" />
        <dc:title></dc:title>
      </cc:Work>
    </rdf:RDF>
  </metadata>
  <g
     inkscape:label="Ebene 1"
     inkscape:groupmode="layer"
     id="layer1">
    <rect
       style="fill:#ff0000;fill-opacity:1;stroke:#ff0000;stroke-width:3;stroke-miterlimit:4;stroke-opacity:1;stroke-dasharray:none;stroke-dashoffset:0"
       id="rect2816"
       width="117.14286"
       height="245.71428"
       x="580"
       y="58.076469" />
    <path
       style="fill:none;stroke:#000000;stroke-width:1px;stroke-linecap:butt;stroke-linejoin:miter;stroke-opacity:1"
       d="m 631.42857,312.36218 0,714.28572 -545.714284,0 0,-345.71429 337.142854,0 0,-334.28571"
       id="path2818" />
    <path
       style="fill:none;stroke:#000000;stroke-width:1px;stroke-linecap:butt;stroke-linejoin:miter;stroke-opacity:1"
       d="m 85.714286,683.79075 0,-440 397.142854,0"
       id="path2820" />
    <path
       style="fill:none;stroke:#000000;stroke-width:1px;stroke-linecap:butt;stroke-linejoin:miter;stroke-opacity:1"
       d="m 377.14286,186.6479 0,11.42857 L 380,183.79075 c 0.067,0.32569 0.24928,0.62646 0.507,0.83657 0.25773,0.2101 0.58906,0.32804 0.92157,0.32804 0.33251,0 0.66384,-0.11794 0.92157,-0.32804 0.25772,-0.21011 0.44,-0.51088 0.507,-0.83657 0.0491,-0.23855 0.0376,-0.48596 0.002,-0.72684 -0.0359,-0.24088 -0.0958,-0.47744 -0.14387,-0.7162 -0.048,-0.23876 -0.0843,-0.48191 -0.0718,-0.72514 0.0125,-0.24322 0.0762,-0.48812 0.21392,-0.68896 0.15112,-0.22033 0.38573,-0.37697 0.64091,-0.45611 0.25518,-0.0791 0.52985,-0.0839 0.79317,-0.0388 0.52666,0.0903 0.99796,0.37068 1.46271,0.63437 0.46475,0.26369 0.95471,0.52127 1.48778,0.55816 0.26653,0.0184 0.54003,-0.0212 0.78039,-0.13782 0.24035,-0.11667 0.44538,-0.31371 0.54933,-0.55983 0.096,-0.22723 0.10276,-0.48369 0.0666,-0.72769 -0.0361,-0.24401 -0.11309,-0.47975 -0.18029,-0.71709 -0.0672,-0.23734 -0.12528,-0.48052 -0.12206,-0.72717 0.003,-0.24665 0.0731,-0.49973 0.23574,-0.68519 0.16416,-0.18721 0.40975,-0.28985 0.65711,-0.31833 0.24736,-0.0285 0.49786,0.0113 0.73939,0.0719 0.24153,0.0605 0.4776,0.14176 0.72007,0.1984 0.24246,0.0566 0.49486,0.0884 0.74057,0.0481 0.34145,-0.056 0.6491,-0.24925 0.89433,-0.49337 0.24522,-0.24412 0.43426,-0.53816 0.61191,-0.8351 0.17765,-0.29693 0.34678,-0.60058 0.55963,-0.87338 0.21285,-0.27281 0.47433,-0.51645 0.79127,-0.65529 0.24193,-0.10597 0.50935,-0.14748 0.77336,-0.14003 0.26401,0.007 0.5251,0.0628 0.77652,0.14367 0.50284,0.16181 0.96657,0.42402 1.45235,0.6315 0.48579,0.20748 1.01454,0.36223 1.5379,0.29067 0.26169,-0.0358 0.51769,-0.12958 0.72913,-0.28787 0.21143,-0.15828 0.37623,-0.38294 0.44503,-0.63794 0.0652,-0.24164 0.0433,-0.49923 -0.0126,-0.74318 -0.0559,-0.24396 -0.14474,-0.47898 -0.21441,-0.71937 -0.0697,-0.24039 -0.12048,-0.49079 -0.0973,-0.73999 0.0116,-0.1246 0.0419,-0.24799 0.0955,-0.36108 0.0536,-0.1131 0.13077,-0.21572 0.22878,-0.29353 0.0978,-0.0776 0.21478,-0.12943 0.33646,-0.1573 0.12169,-0.0279 0.24806,-0.0323 0.37237,-0.0208 0.24862,0.0229 0.48669,0.10801 0.72207,0.19129 0.23537,0.0833 0.47452,0.16618 0.72353,0.18446 0.1245,0.009 0.25082,0.002 0.37168,-0.0295 0.12086,-0.0313 0.23622,-0.0869 0.33103,-0.16814 0.0948,-0.0812 0.16756,-0.18673 0.21619,-0.3017 0.0486,-0.11497 0.0736,-0.23923 0.0801,-0.36389 0.0131,-0.24932 -0.0465,-0.49673 -0.12033,-0.73522 -0.0739,-0.23848 -0.16269,-0.47322 -0.21115,-0.71813 -0.0485,-0.24491 -0.0545,-0.50519 0.0352,-0.7382 0.0973,-0.25282 0.30374,-0.45643 0.54763,-0.5743 0.24389,-0.11788 0.52257,-0.15386 0.79229,-0.1288 0.53945,0.0501 1.0268,0.33079 1.48963,0.61241 0.46282,0.28162 0.93712,0.57706 1.4721,0.66256 0.26749,0.0428 0.54703,0.0299 0.80136,-0.0633 0.25433,-0.0932 0.48166,-0.2707 0.61128,-0.50856 0.11677,-0.21427 0.15002,-0.4661 0.13557,-0.70969 -0.0145,-0.24359 -0.074,-0.48197 -0.13354,-0.71863 -0.0595,-0.23665 -0.11942,-0.47491 -0.13457,-0.71846 -0.0152,-0.24355 0.017,-0.49543 0.13254,-0.71036 0.12772,-0.2376 0.35232,-0.41617 0.60457,-0.51175 0.25225,-0.0956 0.53036,-0.11182 0.79725,-0.0726 0.53378,0.0783 1.00999,0.36632 1.47294,0.64334 0.46295,0.27702 0.94749,0.55542 1.48413,0.61087 0.26832,0.0277 0.5459,-0.003 0.7915,-0.11503 0.2456,-0.11155 0.45693,-0.30714 0.56389,-0.55478 0.0979,-0.22673 0.10509,-0.48385 0.0684,-0.72808 -0.0367,-0.24423 -0.115,-0.4799 -0.18343,-0.7172 -0.0684,-0.2373 -0.12763,-0.48064 -0.12444,-0.72759 0.003,-0.24695 0.0744,-0.50055 0.23947,-0.68428 0.16616,-0.18498 0.41354,-0.28309 0.66104,-0.30702 0.24749,-0.0239 0.49678,0.0202 0.73736,0.0831 0.24057,0.0629 0.47622,0.14456 0.71904,0.19808 0.24283,0.0535 0.49665,0.0783 0.73971,0.0258 0.34091,-0.0735 0.63557,-0.29452 0.86126,-0.56039 0.22569,-0.26588 0.39078,-0.57672 0.55557,-0.88408 0.16479,-0.30736 0.33313,-0.61689 0.56397,-0.8783 0.23084,-0.26142 0.53282,-0.47423 0.87634,-0.53437 0.24864,-0.0435 0.50501,-0.005 0.74877,0.0602 0.24375,0.0656 0.47945,0.15827 0.7224,0.22677 0.24295,0.0685 0.4977,0.11275 0.74775,0.0782 0.12502,-0.0173 0.24785,-0.0544 0.35846,-0.11523 0.11061,-0.0608 0.20879,-0.14556 0.27976,-0.24992 0.0712,-0.10474 0.114,-0.22748 0.13193,-0.35287 0.0179,-0.12539 0.0116,-0.2535 -0.01,-0.37831 -0.0432,-0.24963 -0.14583,-0.48428 -0.23803,-0.72024 -0.0922,-0.23596 -0.17568,-0.48116 -0.17733,-0.73449 -8.3e-4,-0.12667 0.0193,-0.25427 0.0674,-0.37146 0.0481,-0.1172 0.12475,-0.22371 0.22604,-0.29977 0.10656,-0.08 0.23759,-0.12431 0.37025,-0.1369 0.13266,-0.0126 0.26704,0.006 0.39533,0.0415 0.2566,0.072 0.48716,0.21318 0.72519,0.33304 0.23804,0.11987 0.49713,0.22142 0.76307,0.20397 0.13297,-0.009 0.26528,-0.0483 0.37501,-0.12396 0.10972,-0.0756 0.19554,-0.18851 0.2283,-0.31768 0.0358,-0.14132 0.006,-0.29583 -0.0707,-0.41982 -0.0767,-0.12398 -0.19769,-0.21784 -0.33301,-0.27211 -0.13531,-0.0543 -0.2843,-0.0702 -0.42954,-0.0575 -0.14524,0.0127 -0.28705,0.0533 -0.42197,0.10856 -0.26983,0.11049 -0.51184,0.27811 -0.76898,0.41558 -0.25714,0.13748 -0.54216,0.24702 -0.83294,0.22533 -0.26828,-0.02 -0.52361,-0.15525 -0.70124,-0.35729 -0.17764,-0.20205 -0.2783,-0.4674 -0.29315,-0.73602 -0.0148,-0.26861 0.0541,-0.53939 0.18345,-0.77528 0.12935,-0.23588 0.31773,-0.43731 0.53644,-0.59396 0.43742,-0.31331 0.98345,-0.4433 1.52073,-0.47223 0.53727,-0.0289 1.07447,0.0361 1.61092,0.0776 0.95048,0.0736 1.90666,0.0736 2.85714,0 0.0187,-0.74272 0.33245,-1.47399 0.8578,-1.99934 0.52535,-0.52535 1.25662,-0.8391 1.99934,-0.85781 0.4822,-0.0121 0.95841,0.0944 1.4375,0.1505 0.47908,0.0561 0.9844,0.0574 1.41964,-0.1505 0.26789,-0.12797 0.49843,-0.33301 0.65678,-0.58415 0.15835,-0.25113 0.244,-0.54753 0.244,-0.84442 0,-0.29689 -0.0856,-0.59329 -0.244,-0.84442 -0.15835,-0.25114 -0.38889,-0.45618 -0.65678,-0.58415 -0.0965,-0.7702 0.18077,-1.57863 0.72965,-2.1275 0.54887,-0.54887 1.3573,-0.82613 2.1275,-0.72964 0.49828,0.0624 0.96773,0.2697 1.46236,0.35642 0.24732,0.0434 0.50295,0.056 0.74869,0.004 0.24573,-0.0516 0.48173,-0.17102 0.64609,-0.36084 0.16088,-0.1858 0.24522,-0.42922 0.26977,-0.67376 0.0245,-0.24455 -0.007,-0.49153 -0.057,-0.73223 -0.0994,-0.4814 -0.27136,-0.96311 -0.21281,-1.45116 0.0413,-0.34423 0.19749,-0.66814 0.4099,-0.94214 0.21242,-0.274 0.47961,-0.50119 0.76149,-0.70304 0.56375,-0.4037 1.19873,-0.7184 1.68575,-1.21196 0.48848,-0.49504 0.79515,-1.13666 1.19807,-1.70352 0.20145,-0.28343 0.43011,-0.55125 0.7071,-0.76147 0.277,-0.21021 0.60564,-0.3611 0.95198,-0.39215 0.49472,-0.0444 0.97426,0.15356 1.45904,0.26174 0.2424,0.0541 0.49303,0.0861 0.73926,0.0536 0.24622,-0.0324 0.48911,-0.13405 0.65884,-0.31535 0.16852,-0.18001 0.25386,-0.42646 0.27382,-0.67223 0.02,-0.24577 -0.0209,-0.4926 -0.0781,-0.73246 -0.0572,-0.23985 -0.13083,-0.47584 -0.1781,-0.71785 -0.0473,-0.242 -0.0677,-0.49316 -0.0176,-0.7346 0.0587,-0.283 0.21377,-0.54174 0.42006,-0.74418 0.20629,-0.20245 0.46215,-0.3504 0.73317,-0.45083 0.54204,-0.20087 1.13282,-0.21379 1.71077,-0.22536 0.57795,-0.0116 1.16901,-0.0265 1.7097,-0.231 0.27034,-0.10224 0.52504,-0.25237 0.7293,-0.45687 0.20425,-0.2045 0.35634,-0.46515 0.41128,-0.74891 0.047,-0.24295 0.0226,-0.49471 -0.0282,-0.73691 -0.0508,-0.24219 -0.12748,-0.47816 -0.18616,-0.71857 -0.0587,-0.24041 -0.0995,-0.48856 -0.0765,-0.73495 0.023,-0.2464 0.11486,-0.49268 0.2908,-0.66671 0.17576,-0.17385 0.42265,-0.26299 0.66897,-0.28392 0.24633,-0.0209 0.49386,0.0213 0.73388,0.0806 0.24001,0.0592 0.47587,0.13552 0.71816,0.18462 0.24229,0.0491 0.49439,0.0704 0.73614,0.0187 0.33941,-0.0726 0.63604,-0.28535 0.8677,-0.54381 0.23166,-0.25845 0.40562,-0.56242 0.57589,-0.86487 0.17027,-0.30244 0.34021,-0.60818 0.56544,-0.87226 0.22522,-0.26409 0.51268,-0.48702 0.84811,-0.5762 0.23593,-0.0627 0.48545,-0.057 0.72702,-0.0217 0.24158,0.0352 0.47787,0.0992 0.71619,0.15215 0.23831,0.053 0.4813,0.0952 0.72525,0.0859 0.24396,-0.009 0.49083,-0.0733 0.68868,-0.21629 0.2077,-0.15013 0.34999,-0.38041 0.41965,-0.62704 0.0697,-0.24662 0.0703,-0.50899 0.0314,-0.76229 -0.0779,-0.5066 -0.30818,-0.97559 -0.45106,-1.46782 -0.37876,-1.30487 -0.10086,-2.7817 0.72159,-3.86324 0.82245,-1.08153 2.16831,-1.7434 3.52704,-1.74044 1.35873,0.003 2.69944,0.66866 3.5278,1.74568 0.82836,1.07702 1.12789,2.54068 0.795,3.858 -0.12374,0.48968 -0.32939,0.95973 -0.40018,1.45982 -0.0354,0.25004 -0.036,0.50743 0.0248,0.75252 0.0609,0.24509 0.18598,0.47774 0.37535,0.64481 0.18501,0.16323 0.42394,0.25778 0.66782,0.29507 0.24389,0.0373 0.49339,0.0199 0.73674,-0.0207 0.48669,-0.0813 0.9595,-0.25539 1.45258,-0.27434 0.40097,-0.0154 0.8039,0.0743 1.16658,0.24605 0.36267,0.17171 0.68526,0.42423 0.9496,0.72612 0.52866,0.6038 0.81645,1.39373 0.90233,2.19165 0.17174,1.59585 -0.40109,3.17092 -1.0051,4.658 -0.60402,1.48707 -1.2404,2.97079 -1.59775,4.53557 -0.35736,1.56478 -0.41566,3.1804 -0.41566,4.78546 l 0,17.14286 c 0,0.49205 0.0672,0.98095 0.17395,1.46128 0.0534,0.24017 0.1046,0.48391 0.0957,0.72978 -0.004,0.12293 -0.0247,0.24596 -0.068,0.36108 -0.0434,0.11512 -0.11053,0.2223 -0.20159,0.305 -0.0935,0.0849 -0.21026,0.14222 -0.33277,0.17275 -0.12251,0.0305 -0.25066,0.0349 -0.37621,0.0216 -0.2511,-0.0267 -0.48893,-0.1223 -0.72372,-0.21523 -0.23478,-0.0929 -0.47453,-0.18514 -0.72632,-0.20432 -0.12589,-0.01 -0.25395,-4.5e-4 -0.37498,0.0355 -0.12103,0.036 -0.23488,0.0994 -0.32314,0.18969 -0.0884,0.0905 -0.14934,0.206 -0.18263,0.32806 -0.0333,0.12205 -0.0396,0.25052 -0.0275,0.37645 0.0242,0.25186 0.12038,0.49042 0.21508,0.72506 0.0947,0.23463 0.19003,0.47365 0.21251,0.72567 0.0112,0.12602 0.004,0.25446 -0.0308,0.37616 -0.0346,0.1217 -0.0969,0.23653 -0.18661,0.32575 -0.0897,0.0893 -0.20497,0.15101 -0.32691,0.18495 -0.12194,0.034 -0.25048,0.0408 -0.3765,0.0289 -0.25205,-0.0237 -0.49079,-0.11993 -0.72539,-0.21505 -0.23461,-0.0951 -0.47345,-0.19119 -0.72554,-0.21444 -0.12604,-0.0116 -0.25458,-0.005 -0.37643,0.0297 -0.12186,0.0342 -0.23692,0.0963 -0.32637,0.18588 -0.0895,0.0896 -0.1514,0.20472 -0.1855,0.32664 -0.0341,0.12191 -0.041,0.25047 -0.0293,0.37652 0.0235,0.25208 0.11982,0.49087 0.21503,0.72546 0.0952,0.2346 0.19147,0.47341 0.2149,0.72551 0.0117,0.12604 0.005,0.2546 -0.0294,0.3765 -0.0342,0.12189 -0.0962,0.23701 -0.18571,0.32651 -0.0895,0.0895 -0.20466,0.1515 -0.32657,0.18563 -0.12191,0.0341 -0.25047,0.0411 -0.37652,0.0293 -0.2521,-0.0235 -0.49089,-0.11979 -0.72549,-0.21503 -0.2346,-0.0952 -0.47339,-0.19153 -0.72549,-0.215 -0.12605,-0.0117 -0.25462,-0.005 -0.37652,0.0294 -0.12191,0.0342 -0.23703,0.0961 -0.32655,0.18567 -0.0895,0.0895 -0.15152,0.20465 -0.18566,0.32655 -0.0342,0.1219 -0.0411,0.25047 -0.0294,0.37652 0.0235,0.2521 0.11977,0.4909 0.21501,0.72549 0.0952,0.2346 0.19154,0.47339 0.21503,0.72549 0.0118,0.12605 0.005,0.25461 -0.0294,0.37652 -0.0341,0.12191 -0.0961,0.23704 -0.18563,0.32657 -0.0895,0.0895 -0.20462,0.15155 -0.32652,0.1857 -0.1219,0.0342 -0.25046,0.0412 -0.37651,0.0294 -0.2521,-0.0234 -0.4909,-0.1197 -0.7255,-0.21492 -0.2346,-0.0952 -0.47338,-0.19151 -0.72547,-0.21504 -0.12605,-0.0118 -0.25461,-0.005 -0.37653,0.0293 -0.12191,0.0341 -0.23706,0.0961 -0.32662,0.18553 -0.0896,0.0895 -0.15162,0.20453 -0.18585,0.3264 -0.0342,0.12186 -0.0413,0.25041 -0.0297,0.37645 0.0233,0.25209 0.1194,0.49093 0.21454,0.72553 0.0951,0.2346 0.19141,0.47335 0.21504,0.72541 0.0118,0.12603 0.005,0.25457 -0.029,0.37651 -0.034,0.12194 -0.0958,0.23715 -0.18507,0.32685 -0.0893,0.0897 -0.20415,0.15195 -0.32588,0.18645 -0.12173,0.0345 -0.2502,0.0419 -0.37622,0.0306 -0.25203,-0.0226 -0.49101,-0.11813 -0.72564,-0.21292 -0.23463,-0.0948 -0.47322,-0.19095 -0.72512,-0.21507 -0.12595,-0.0121 -0.25444,-0.006 -0.37647,0.0278 -0.12203,0.0334 -0.2375,0.0945 -0.32781,0.18312 -0.0902,0.0885 -0.15337,0.20252 -0.18904,0.32369 -0.0357,0.12116 -0.0445,0.24931 -0.0345,0.37523 0.0199,0.25183 0.11273,0.49142 0.20604,0.72617 0.0933,0.23475 0.18904,0.47273 0.2152,0.72399 0.0131,0.12563 0.008,0.25385 -0.0228,0.37626 -0.0311,0.12242 -0.0892,0.23896 -0.17483,0.3318 -0.0852,0.0923 -0.19596,0.15944 -0.31487,0.19994 -0.11892,0.0405 -0.24581,0.055 -0.37136,0.0507 -0.2511,-0.009 -0.49333,-0.0908 -0.72888,-0.17823 -0.23556,-0.0874 -0.47156,-0.18156 -0.72045,-0.21589 -0.12444,-0.0172 -0.25161,-0.019 -0.37533,0.003 -0.12372,0.0218 -0.24403,0.0677 -0.34625,0.14071 -0.10241,0.0732 -0.18508,0.17249 -0.24412,0.28364 -0.059,0.11115 -0.0949,0.23393 -0.11125,0.35872 -0.0328,0.24958 0.0114,0.50334 0.0788,0.74585 0.0675,0.24252 0.15822,0.4782 0.22178,0.72177 0.0636,0.24357 0.0995,0.49945 0.0548,0.74716 -0.062,0.34309 -0.27557,0.64412 -0.53724,0.87453 -0.26167,0.23041 -0.57102,0.39873 -0.87812,0.5638 -0.3071,0.16507 -0.61756,0.3307 -0.88293,0.55683 -0.26538,0.22613 -0.48575,0.52108 -0.55886,0.86198 -0.0521,0.24313 -0.0272,0.49692 0.0263,0.73974 0.0536,0.24281 0.13529,0.47847 0.1981,0.71906 0.0628,0.2406 0.10689,0.48992 0.0829,0.73741 -0.024,0.2475 -0.12225,0.49484 -0.3073,0.66094 -0.18378,0.16497 -0.43738,0.23615 -0.68432,0.23931 -0.24695,0.003 -0.49028,-0.056 -0.72758,-0.12446 -0.23729,-0.0684 -0.47296,-0.14669 -0.71719,-0.18335 -0.24423,-0.0367 -0.50135,-0.0295 -0.72805,0.0685 -0.24763,0.107 -0.44319,0.31836 -0.55471,0.56399 -0.11152,0.24562 -0.14267,0.52321 -0.11491,0.79153 0.0555,0.53665 0.33399,1.02116 0.61104,1.4841 0.27705,0.46295 0.56504,0.93918 0.64332,1.47299 0.0391,0.2669 0.0229,0.54502 -0.0728,0.79725 -0.0956,0.25223 -0.27429,0.47679 -0.51194,0.60442 -0.21499,0.11546 -0.46689,0.1475 -0.71044,0.13226 -0.24355,-0.0153 -0.48179,-0.0753 -0.71845,-0.1348 -0.23665,-0.0595 -0.47504,-0.11912 -0.71865,-0.1335 -0.2436,-0.0144 -0.49544,0.0191 -0.7096,0.13604 -0.23799,0.13002 -0.41525,0.35801 -0.50796,0.61286 -0.0927,0.25485 -0.10471,0.53477 -0.0611,0.80243 0.0873,0.53532 0.38464,1.00916 0.66749,1.47196 0.28284,0.4628 0.56419,0.95088 0.61299,1.49107 0.0244,0.27009 -0.0128,0.54906 -0.13225,0.79252 -0.11947,0.24346 -0.3251,0.44869 -0.5792,0.54345 -0.2347,0.0875 -0.49584,0.0781 -0.74097,0.0265 -0.24513,-0.0516 -0.47967,-0.14322 -0.71857,-0.21854 -0.2389,-0.0753 -0.48755,-0.13494 -0.73756,-0.11923 -0.125,0.008 -0.24939,0.0349 -0.36366,0.0861 -0.11428,0.0513 -0.21825,0.12728 -0.29638,0.22517 -0.0785,0.0984 -0.12964,0.21715 -0.15544,0.34034 -0.0258,0.12319 -0.0268,0.25079 -0.0114,0.37571 0.0307,0.24984 0.12542,0.4866 0.21524,0.72175 0.0898,0.23516 0.17653,0.4762 0.19005,0.72756 0.007,0.12568 -0.005,0.25309 -0.0436,0.37297 -0.0383,0.11989 -0.10361,0.23211 -0.19485,0.31881 -0.0916,0.087 -0.20752,0.1466 -0.32966,0.17895 -0.12214,0.0324 -0.25041,0.0382 -0.37616,0.0258 -0.25149,-0.0247 -0.48984,-0.12012 -0.72455,-0.21376 -0.23471,-0.0936 -0.4739,-0.18756 -0.72569,-0.20905 -0.12589,-0.0108 -0.25413,-0.003 -0.37562,0.0318 -0.1215,0.0347 -0.23614,0.0969 -0.32547,0.18626 -0.0893,0.0894 -0.15152,0.20402 -0.18618,0.32552 -0.0347,0.12151 -0.0425,0.24974 -0.0317,0.37564 0.0215,0.25179 0.11549,0.49096 0.20916,0.72567 0.0937,0.23471 0.18906,0.47307 0.21373,0.72457 0.0123,0.12575 0.007,0.25403 -0.0259,0.37616 -0.0324,0.12213 -0.092,0.23803 -0.1791,0.32958 -0.0867,0.0912 -0.19904,0.15641 -0.31896,0.19465 -0.11993,0.0382 -0.24735,0.0501 -0.37304,0.0433 -0.25137,-0.0137 -0.49237,-0.10061 -0.72751,-0.19053 -0.23514,-0.0899 -0.47193,-0.18462 -0.72181,-0.21522 -0.12494,-0.0153 -0.25256,-0.0142 -0.37572,0.0118 -0.12317,0.026 -0.24189,0.0773 -0.3401,0.15602 -0.0977,0.0783 -0.17346,0.1825 -0.22441,0.2969 -0.051,0.11441 -0.0776,0.23887 -0.0851,0.36388 -0.015,0.25002 0.0452,0.49848 0.12089,0.73726 0.0757,0.23878 0.16736,0.47331 0.21844,0.71852 0.0511,0.24521 0.0594,0.50656 -0.0298,0.74059 -0.0972,0.255 -0.30691,0.45949 -0.55395,0.57548 -0.24704,0.116 -0.52865,0.14763 -0.79987,0.11723 -0.54243,-0.0608 -1.02686,-0.35512 -1.48865,-0.64611 -0.46179,-0.29099 -0.93926,-0.59288 -1.47932,-0.67205 -0.27003,-0.0396 -0.55212,-0.02 -0.80474,0.0833 -0.25262,0.10328 -0.47344,0.29436 -0.58776,0.54218 -0.10322,0.22376 -0.11592,0.48036 -0.0832,0.7246 0.0327,0.24424 0.10833,0.48029 0.17594,0.71725 0.0676,0.23697 0.12788,0.47913 0.12846,0.72555 5.9e-4,0.24642 -0.0636,0.50026 -0.22118,0.68974 -0.15975,0.19213 -0.40316,0.30218 -0.6506,0.33692 -0.24744,0.0347 -0.4999,1e-5 -0.74287,-0.0583 -0.24296,-0.0583 -0.47973,-0.14009 -0.72194,-0.20149 -0.24221,-0.0614 -0.49315,-0.10246 -0.74173,-0.0771 -0.34489,0.0352 -0.66826,0.19799 -0.93565,0.41865 -0.26739,0.22066 -0.4831,0.49742 -0.67595,0.78551 -0.38572,0.57617 -0.70235,1.22206 -1.24554,1.65298 -0.40256,0.31936 -0.91472,0.49784 -1.42857,0.49784 -0.51385,0 -1.02601,-0.17848 -1.42857,-0.49784 -0.44157,1.32471 -1.53244,2.41558 -2.85715,2.85715 -0.91929,0.30643 -1.93785,0.30643 -2.85714,0 0.15341,0.77963 -0.10502,1.62842 -0.66687,2.19027 -0.56185,0.56185 -1.41064,0.82028 -2.19027,0.66687 -0.50819,-0.1 -0.97398,-0.3597 -1.4817,-0.46206 -0.25386,-0.0512 -0.52028,-0.0616 -0.76958,0.009 -0.24929,0.0701 -0.48024,0.22705 -0.60587,0.45351 -0.12127,0.21859 -0.13626,0.48287 -0.0964,0.72965 0.0398,0.24678 0.13044,0.48193 0.21101,0.71856 0.0806,0.23663 0.15222,0.48084 0.15173,0.73081 -2.5e-4,0.12499 -0.0189,0.25056 -0.0622,0.3678 -0.0433,0.11724 -0.11182,0.22601 -0.20409,0.31032 -0.0925,0.0845 -0.20727,0.14302 -0.32812,0.17607 -0.12086,0.0331 -0.24774,0.0412 -0.3727,0.0321 -0.24992,-0.0183 -0.48933,-0.1041 -0.72453,-0.19058 -0.23519,-0.0865 -0.47311,-0.17521 -0.7225,-0.1997 -0.12469,-0.0122 -0.25163,-0.008 -0.37364,0.0205 -0.12201,0.0285 -0.23906,0.0819 -0.33565,0.16167 -0.0964,0.0796 -0.17083,0.18437 -0.22083,0.29897 -0.05,0.11461 -0.076,0.23893 -0.0833,0.36376 -0.0145,0.24965 0.045,0.49771 0.11956,0.73642 0.0745,0.23871 0.1648,0.47334 0.21489,0.71835 0.0501,0.24501 0.058,0.50569 -0.0303,0.73964 -0.0957,0.25338 -0.30098,0.45817 -0.54421,0.57729 -0.24323,0.11913 -0.52173,0.15641 -0.79151,0.13244 -0.53955,-0.048 -1.02773,-0.32736 -1.49068,-0.60859 -0.46295,-0.28123 -0.93659,-0.5771 -1.47117,-0.6645 -0.26729,-0.0437 -0.54676,-0.0322 -0.80161,0.0594 -0.25486,0.0917 -0.48337,0.26729 -0.6151,0.50394 -0.1186,0.21307 -0.15446,0.46434 -0.14225,0.70789 0.0122,0.24355 0.0699,0.48226 0.12845,0.71898 0.0586,0.23671 0.11853,0.47465 0.13547,0.71791 0.0169,0.24327 -0.0114,0.49485 -0.12167,0.71237 -0.11975,0.2363 -0.33192,0.41982 -0.57446,0.52637 -0.24254,0.10655 -0.51376,0.13915 -0.77778,0.11738 -0.52803,-0.0435 -1.01389,-0.29449 -1.47889,-0.54844 -0.465,-0.25394 -0.93863,-0.52046 -1.46242,-0.60015 -0.2619,-0.0399 -0.53385,-0.0307 -0.78606,0.0503 -0.25222,0.081 -0.48368,0.23687 -0.63468,0.45454 -0.13885,0.20015 -0.20511,0.4442 -0.22033,0.68732 -0.0152,0.24313 0.0182,0.48678 0.0646,0.72593 0.0927,0.47828 0.23836,0.96375 0.15577,1.44389 -0.0587,0.34097 -0.2357,0.66109 -0.4961,0.8889 -0.2604,0.2278 -0.60273,0.36096 -0.94869,0.36485 -0.34596,0.004 -0.69255,-0.1224 -0.95219,-0.35106 -0.25965,-0.22866 -0.42915,-0.5581 -0.46016,-0.90269 -0.0226,-0.25172 0.026,-0.50477 0.0954,-0.74781 0.0693,-0.24303 0.15948,-0.47995 0.22279,-0.72463 0.0633,-0.24468 0.0995,-0.50104 0.0582,-0.75039 -0.0206,-0.12467 -0.0607,-0.24663 -0.12347,-0.35632 -0.0627,-0.10969 -0.14848,-0.20691 -0.25296,-0.27799 -0.20722,-0.14097 -0.47401,-0.17013 -0.72227,-0.13585 -0.24827,0.0343 -0.48423,0.12632 -0.71997,0.2114 -0.23573,0.0851 -0.47801,0.16465 -0.72852,0.1722 -0.12525,0.004 -0.25173,-0.0109 -0.37048,-0.0509 -0.11875,-0.04 -0.22965,-0.10598 -0.31591,-0.19687 -0.0865,-0.0911 -0.14661,-0.20561 -0.18062,-0.32654 -0.034,-0.12092 -0.0425,-0.2482 -0.0331,-0.37347 0.0187,-0.25054 0.10669,-0.49005 0.19539,-0.72511 0.0887,-0.23505 0.17977,-0.47296 0.20494,-0.72293 0.0126,-0.12498 0.008,-0.25233 -0.021,-0.37449 -0.0292,-0.12217 -0.084,-0.23911 -0.16562,-0.33461 -0.0813,-0.0951 -0.18776,-0.16726 -0.30363,-0.21437 -0.11587,-0.0471 -0.24094,-0.0696 -0.36596,-0.0734 -0.25005,-0.007 -0.49627,0.0589 -0.73382,0.13731 -0.23755,0.0784 -0.47223,0.16977 -0.71824,0.21513 -0.24601,0.0454 -0.50908,0.0417 -0.73549,-0.0647 -0.24044,-0.11296 -0.41991,-0.33559 -0.51068,-0.58526 -0.0908,-0.24967 -0.0982,-0.52425 -0.0547,-0.78632 0.0871,-0.52412 0.36692,-0.99269 0.56537,-1.48556 0.46097,-1.14487 0.4795,-2.42678 0.28963,-3.64627 -0.18988,-1.2195 -0.5783,-2.39754 -0.91343,-3.58536 -0.33512,-1.18781 -0.61991,-2.40658 -0.59376,-3.64049 0.0262,-1.23392 0.39077,-2.49727 1.21756,-3.41359 0.4559,-0.50527 1.03045,-0.88516 1.56316,-1.30867 0.53271,-0.4235 1.04266,-0.91604 1.29398,-1.54848 0.14627,-0.36809 0.19795,-0.76995 0.17929,-1.16559 -0.0187,-0.39565 -0.1062,-0.78583 -0.22995,-1.16209 -0.24751,-0.75252 -0.63747,-1.44923 -0.94212,-2.18048 -0.30465,-0.73125 -0.5262,-1.52723 -0.40995,-2.31083 0.0581,-0.3918 0.2027,-0.77407 0.44254,-1.08929 0.23984,-0.31521 0.57767,-0.56037 0.96019,-0.66314 0.46471,-0.12486 0.95636,-0.0374 1.4316,0.0381 0.23762,0.0377 0.47661,0.0723 0.71718,0.0753 0.24058,0.003 0.484,-0.0265 0.70837,-0.1134 0.38882,-0.15053 0.70253,-0.47354 0.86307,-0.85834 0.16055,-0.3848 0.17132,-0.82584 0.0521,-1.22539 -0.1192,-0.39954 -0.36428,-0.7571 -0.67867,-1.03097 -0.31438,-0.27388 -0.69613,-0.4657 -1.09759,-0.57827 -0.80292,-0.22514 -1.66384,-0.13494 -2.47175,0.0716 -0.8079,0.20654 -1.58244,0.52568 -2.38148,0.76422 -2.65153,0.79157 -5.56923,0.65961 -8.13847,-0.36809 -2.56925,-1.0277 -4.77308,-2.94435 -6.14724,-5.34619"
       id="path2822"
       inkscape:path-effect="#path-effect2824"
       inkscape:original-d="m 377.14286,186.6479 c 0,3.80952 -2.69374,14.12231 0,11.42857 0.95238,-4.76191 1.90476,-9.52381 2.85714,-14.28572 0.95238,0 2.18371,0.67344 2.85714,0 0.67344,-0.67343 -0.67343,-2.1837 0,-2.85714 0.96349,-0.96349 4.7508,0.96349 5.71429,0 0.67343,-0.67343 -0.67344,-2.18371 0,-2.85714 0.67343,-0.67344 2.00531,0.42592 2.85714,0 1.20468,-0.60234 1.65247,-2.25481 2.85714,-2.85714 1.70368,-0.85184 4.36742,1.34687 5.71429,0 0.67344,-0.67344 -0.67344,-2.18371 0,-2.85715 0.67344,-0.67343 2.18371,0.67344 2.85714,0 0.67344,-0.67343 -0.67343,-2.18371 0,-2.85714 0.96349,-0.96349 4.7508,0.96349 5.71429,0 0.67343,-0.67344 -0.67344,-2.18371 0,-2.85714 1.34687,-1.34687 4.36741,1.34687 5.71428,0 0.67344,-0.67344 -0.67343,-2.18371 0,-2.85715 0.67344,-0.67343 2.00531,0.42592 2.85715,0 1.20467,-0.60233 1.65246,-2.2548 2.85714,-2.85714 0.85184,-0.42592 2.18371,0.67344 2.85714,0 0.67344,-0.67343 -0.67343,-2.18371 0,-2.85714 0.67344,-0.67344 2.85715,-0.95238 2.85715,0 0,0.95238 -2.85715,0.95238 -2.85715,0 0,-1.34687 1.65247,-2.25481 2.85715,-2.85714 0.85183,-0.42592 1.90476,0 2.85714,0 0.95238,-0.95239 1.65246,-2.25481 2.85714,-2.85715 0.85184,-0.42592 2.18371,0.67344 2.85714,0 0.67344,-0.67343 -0.67343,-2.18371 0,-2.85714 7.61905,0 -0.95238,0.95238 2.85715,-2.85714 0.67343,-0.67344 2.1837,0.67343 2.85714,0 0.67344,-0.67344 -0.42592,-2.00531 0,-2.85715 0.60234,-1.20467 1.90476,-1.90476 2.85714,-2.85714 0.95238,-0.95238 1.65247,-2.2548 2.85715,-2.85714 0.85183,-0.42592 2.1837,0.67343 2.85714,0 0.67343,-0.67344 -0.42592,-2.00531 0,-2.85714 5.94537,-11.89075 -0.19725,3.05438 5.71428,-2.85715 0.67344,-0.67343 -0.67343,-2.18371 0,-2.85714 0.67344,-0.67344 2.00531,0.42592 2.85715,0 1.20467,-0.60234 1.65246,-2.2548 2.85714,-2.85714 0.85184,-0.42592 2.18371,0.67343 2.85714,0 0.67344,-0.67344 -0.67343,-2.18371 0,-2.85715 0.28572,-0.28571 8.28572,-0.28571 8.57143,0 0.67344,0.67344 -0.67343,2.18371 0,2.85715 0.67344,0.67343 2.18371,-0.67344 2.85714,0 0.14697,0.14697 0,15.51276 0,17.14285 0,5.71429 0,11.42858 0,17.14286 0,0.95238 0.67344,2.18371 0,2.85714 -0.67343,0.67344 -2.1837,-0.67343 -2.85714,0 -0.67343,0.67344 0.67344,2.18371 0,2.85715 -0.67343,0.67343 -2.18371,-0.67344 -2.85714,0 -0.67344,0.67343 0.67343,2.1837 0,2.85714 -0.67344,0.67343 -2.18371,-0.67344 -2.85714,0 -0.67344,0.67343 0.67343,2.18371 0,2.85714 -0.67344,0.67344 -2.18371,-0.67343 -2.85715,0 -0.67343,0.67344 0.67344,2.18371 0,2.85715 -0.67343,0.67343 -2.1837,-0.67344 -2.85714,0 -0.67344,0.67343 0.67344,2.1837 0,2.85714 -0.67344,0.67343 -2.18371,-0.67344 -2.85714,0 -0.67344,0.67343 0.42591,2.00531 0,2.85714 -0.60234,1.20468 -2.25481,1.65247 -2.85715,2.85714 -0.42591,0.85184 0.67344,2.18371 0,2.85715 -0.67343,0.67343 -2.1837,-0.67344 -2.85714,0 -1.34687,1.34687 1.34687,4.36741 0,5.71428 -0.67343,0.67344 -2.18371,-0.67343 -2.85714,0 -0.95243,0.95243 0.95242,4.76186 0,5.71429 -0.67344,0.67343 -2.18371,-0.67344 -2.85714,0 -0.67344,0.67343 0.67343,2.18371 0,2.85714 -0.67344,0.67344 -2.18371,-0.67343 -2.85715,0 -0.67343,0.67344 0.67344,2.18371 0,2.85714 -0.67343,0.67344 -2.1837,-0.67343 -2.85714,0 -0.67344,0.67344 0.67344,2.18371 0,2.85715 -0.96349,0.96349 -4.7508,-0.96349 -5.71429,0 -0.67343,0.67343 0.67344,2.1837 0,2.85714 -0.67343,0.67343 -2.0053,-0.42592 -2.85714,0 -1.20468,0.60234 -1.65246,2.2548 -2.85714,2.85714 -0.85184,0.42592 -1.90476,0 -2.85714,0 -0.95239,0.95238 -1.65247,2.25481 -2.85715,2.85715 -0.85183,0.42591 -1.90476,0 -2.85714,0 -0.95238,0.95238 -1.65247,2.2548 -2.85714,2.85714 -0.85184,0.42592 -2.18371,-0.67344 -2.85715,0 -0.67343,0.67343 0.67344,2.18371 0,2.85714 -0.67343,0.67344 -2.1837,-0.67343 -2.85714,0 -0.67343,0.67344 0.67344,2.18371 0,2.85714 -0.96256,0.96257 -4.75172,-0.96256 -5.71428,0 -0.67344,0.67344 0.67343,2.18371 0,2.85715 -0.96349,0.96349 -4.7508,-0.96349 -5.71429,0 -0.67344,0.67343 0.67344,2.1837 0,2.85714 -0.67344,0.67343 -2.18371,0.67343 -2.85714,0 -0.67344,-0.67344 0.67343,-2.18371 0,-2.85714 -0.67344,-0.67344 -2.18371,0.67343 -2.85715,0 -0.67343,-0.67344 0.67344,-2.18371 0,-2.85715 -0.67343,-0.67343 -2.1837,0.67344 -2.85714,0 -0.67343,-0.67343 0,-1.90476 0,-2.85714 0,-1.98726 -0.51662,-13.25247 0,-14.28571 0.60234,-1.20468 2.25481,-1.65247 2.85714,-2.85715 0.86254,-1.72506 -1.32075,-7.25067 0,-8.57142 0.67344,-0.67344 2.18371,0.67343 2.85715,0 3.7783,-3.7783 -4.94145,-3.11476 -5.71429,-2.85715 -4.86554,1.62185 -9.52381,3.80953 -14.28571,-5.71428 z" />
    <path
       style="fill:none;stroke:#000000;stroke-width:1px;stroke-linecap:butt;stroke-linejoin:miter;stroke-opacity:1"
       d="m 468.57143,306.6479 c 3.10822,-1.48654 6.00377,-3.41691 8.57143,-5.71429 1.00426,-0.89855 1.95859,-1.85288 2.85714,-2.85714 2.05711,-0.59491 4.00409,-1.5684 5.71429,-2.85714 2.15496,-1.6239 3.90336,-3.71393 5.71428,-5.71429 0.75348,-0.8323 1.53408,-1.66289 2.49385,-2.24538 0.47989,-0.29125 1.00249,-0.51746 1.55167,-0.63372 0.54919,-0.11625 1.12576,-0.12036 1.66877,0.022 0.50108,0.13133 0.9677,0.38417 1.47756,0.47562 0.25494,0.0457 0.52123,0.0494 0.76963,-0.024 0.24839,-0.0734 0.47779,-0.22891 0.60995,-0.45166 0.12571,-0.21187 0.15636,-0.46924 0.13335,-0.71452 -0.023,-0.24528 -0.0961,-0.48267 -0.16602,-0.71889 -0.0699,-0.23622 -0.1376,-0.47584 -0.14928,-0.72192 -0.0117,-0.24608 0.0372,-0.50243 0.18195,-0.70182 0.14841,-0.2045 0.38684,-0.33225 0.63471,-0.38135 0.24786,-0.0491 0.50528,-0.0254 0.75209,0.0288 0.49364,0.10825 0.96522,0.33709 1.47034,0.35258 0.36,0.011 0.71922,-0.0896 1.03465,-0.26349 0.31542,-0.17386 0.58833,-0.419 0.8164,-0.69775 0.45616,-0.5575 0.7307,-1.2377 0.99955,-1.90598 0.26885,-0.66828 0.54558,-1.34793 1.00503,-1.90272 0.22972,-0.2774 0.50451,-0.52057 0.82147,-0.69162 0.31696,-0.17105 0.67735,-0.26803 1.03719,-0.25272 0.50736,0.0216 0.97812,0.25922 1.47367,0.37013 0.24778,0.0555 0.50693,0.0789 0.75542,0.0267 0.24849,-0.0522 0.4862,-0.18627 0.62805,-0.39686 0.13836,-0.20542 0.17524,-0.46574 0.15227,-0.71235 -0.023,-0.24661 -0.10105,-0.48424 -0.1766,-0.72011 -0.0755,-0.23587 -0.1496,-0.47531 -0.16408,-0.72256 -0.0145,-0.24725 0.0362,-0.5067 0.18841,-0.70212 0.15399,-0.19777 0.39859,-0.31124 0.64691,-0.34531 0.24833,-0.0341 0.5014,0.005 0.74422,0.0667 0.24282,0.0622 0.47914,0.14778 0.72189,0.21022 0.24275,0.0624 0.49568,0.10162 0.74412,0.0684 0.28396,-0.038 0.55137,-0.17085 0.76775,-0.35862 0.21637,-0.18776 0.38314,-0.42872 0.50287,-0.68898 0.23947,-0.52054 0.29142,-1.1055 0.32123,-1.6777 0.0298,-0.57219 0.0422,-1.15359 0.21185,-1.70088 0.0848,-0.27365 0.20931,-0.53691 0.38497,-0.76322 0.17566,-0.22632 0.40398,-0.41484 0.66848,-0.52489 0.44432,-0.18487 0.94785,-0.13734 1.42362,-0.065 0.47577,0.0724 0.96306,0.16626 1.43352,0.065 0.33627,-0.0724 0.64638,-0.24271 0.91293,-0.46013 0.26655,-0.21741 0.49189,-0.48122 0.69677,-0.75752 0.40976,-0.55261 0.74822,-1.16615 1.24744,-1.63949 0.5047,-0.47854 1.14434,-0.78576 1.70873,-1.1922 0.28219,-0.20323 0.54814,-0.43399 0.75691,-0.71211 0.20877,-0.27811 0.35871,-0.60664 0.39151,-0.95284 0.0467,-0.4926 -0.14201,-0.9725 -0.24639,-1.45617 -0.0522,-0.24184 -0.0836,-0.49119 -0.0535,-0.73677 0.03,-0.24557 0.12573,-0.48852 0.29993,-0.6642 0.17438,-0.17586 0.41689,-0.27363 0.66253,-0.30526 0.24563,-0.0316 0.49548,-0.001 0.73767,0.0504 0.48437,0.1036 0.96319,0.29436 1.45694,0.25483 0.34772,-0.0278 0.68008,-0.17111 0.96327,-0.37479 0.28319,-0.20368 0.51996,-0.46606 0.72683,-0.74693 0.41373,-0.56175 0.71581,-1.20333 1.16704,-1.73542 0.46073,-0.54328 1.05998,-0.95175 1.68002,-1.30243 0.62004,-0.35067 1.26838,-0.6505 1.87913,-1.01712 0.61075,-0.36661 1.19056,-0.80795 1.60773,-1.38535 0.41717,-0.57741 0.65912,-1.30587 0.54741,-2.00939 -0.0809,-0.5097 -0.3382,-0.976 -0.44403,-1.48111 -0.0529,-0.25256 -0.0668,-0.51772 -3.1e-4,-0.76705 0.0665,-0.24933 0.21983,-0.48179 0.44434,-0.60898 0.2178,-0.12339 0.48288,-0.139 0.72994,-0.0987 0.24707,0.0403 0.48215,0.13226 0.71873,0.21408 0.23657,0.0818 0.48092,0.15469 0.73124,0.15432 0.12517,-1.9e-4 0.25094,-0.0191 0.36815,-0.063 0.11721,-0.0439 0.2257,-0.11338 0.30908,-0.20673 0.0838,-0.0938 0.14067,-0.20993 0.17164,-0.33177 0.031,-0.12185 0.0366,-0.24932 0.0249,-0.37449 -0.0234,-0.25035 -0.11437,-0.48872 -0.20385,-0.7237 -0.0895,-0.23498 -0.17923,-0.474 -0.20003,-0.72458 -0.0104,-0.12529 -0.003,-0.25273 0.0297,-0.37408 0.0329,-0.12134 0.0919,-0.23652 0.17762,-0.32852 0.0854,-0.0917 0.19566,-0.15869 0.31404,-0.19975 0.11838,-0.0411 0.24473,-0.0567 0.37,-0.0539 0.25053,0.006 0.49331,0.0839 0.72921,0.16843 0.2359,0.0845 0.4716,0.17683 0.71962,0.21264 0.24803,0.0358 0.51459,0.01 0.72427,-0.12741 0.21223,-0.13889 0.34425,-0.3795 0.39083,-0.62883 0.0466,-0.24932 0.0151,-0.50747 -0.046,-0.75364 -0.0611,-0.24617 -0.1513,-0.48404 -0.22447,-0.7269 -0.0732,-0.24285 -0.12966,-0.49431 -0.12036,-0.74778 0.0128,-0.34973 0.15214,-0.6874 0.35649,-0.97151 0.20435,-0.28412 0.4715,-0.51808 0.75676,-0.72082 0.57052,-0.40549 1.22306,-0.69722 1.7439,-1.16481 0.5095,-0.45741 0.86442,-1.05713 1.27662,-1.60386 0.20609,-0.27336 0.42909,-0.53621 0.68981,-0.75808 0.26072,-0.22188 0.56117,-0.40241 0.89071,-0.4952 0.46107,-0.12983 0.95139,-0.0828 1.42702,-0.026 0.47562,0.0567 0.96081,0.12189 1.43012,0.026 0.3484,-0.0712 0.67596,-0.23012 0.96182,-0.44161 0.28586,-0.21149 0.5311,-0.47468 0.7413,-0.76149 0.42042,-0.57361 0.69982,-1.2356 0.9977,-1.88139 0.29789,-0.6458 0.62539,-1.29251 1.11967,-1.80385 0.24714,-0.25567 0.535,-0.47476 0.85777,-0.62398 0.32277,-0.14922 0.68132,-0.22699 1.03603,-0.20197 0.50766,0.0358 0.97716,0.27537 1.47441,0.38377 0.24862,0.0542 0.50866,0.0751 0.75713,0.0202 0.24847,-0.0549 0.48509,-0.19182 0.6256,-0.40397 0.13668,-0.20636 0.17259,-0.46634 0.14947,-0.71278 -0.0231,-0.24644 -0.10068,-0.48401 -0.17558,-0.71993 -0.0749,-0.23591 -0.14814,-0.4754 -0.16215,-0.72253 -0.014,-0.24712 0.0367,-0.50618 0.18826,-0.7019 0.15353,-0.1983 0.39751,-0.31308 0.64577,-0.34859 0.24826,-0.0355 0.50172,0.002 0.74489,0.063 0.24317,0.0613 0.47971,0.1467 0.72235,0.21009 0.24265,0.0634 0.49505,0.10476 0.74413,0.0755 0.27731,-0.0325 0.54171,-0.15341 0.75662,-0.33166 0.21491,-0.17826 0.38095,-0.41242 0.49079,-0.66913 0.21968,-0.5134 0.21211,-1.10186 0.0799,-1.64442 -0.26439,-1.08512 -0.99046,-2.00423 -1.32733,-3.06908 -0.42419,-1.34085 -0.17163,-2.8775 0.65942,-4.01205 0.83104,-1.13454 2.21995,-1.83883 3.62629,-1.83883 1.40635,0 2.79526,0.70429 3.6263,1.83883 0.83105,1.13455 1.08361,2.6712 0.65942,4.01205"
       id="path2830"
       inkscape:path-effect="#path-effect2832"
       inkscape:original-d="m 468.57143,306.6479 c 6.55096,-6.55096 -1.80702,1.20467 8.57143,-5.71429 1.12066,-0.74711 1.90476,-1.90476 2.85714,-2.85714 1.90476,-0.95238 3.94236,-1.67586 5.71429,-2.85714 1.20807,-0.80539 4.5062,-4.90891 5.71428,-5.71429 1.77193,-1.18128 3.69398,-2.18371 5.71429,-2.85714 0.90351,-0.30117 2.1837,0.67343 2.85714,0 0.67344,-0.67344 -0.67344,-2.18371 0,-2.85715 0.67344,-0.67343 2.00531,0.42592 2.85714,0 0.91443,-0.45721 4.79987,-5.25707 5.71429,-5.71428 0.85183,-0.42592 2.18371,0.67343 2.85714,0 0.67344,-0.67344 -0.67343,-2.18371 0,-2.85714 0.67344,-0.67344 2.00531,0.42591 2.85714,0 11.89075,-5.94538 -3.05438,0.19724 2.85715,-5.71429 0.67343,-0.67344 2.0053,0.42592 2.85714,0 1.20468,-0.60234 1.90476,-1.90476 2.85714,-2.85714 0.95238,-0.95238 2.25481,-1.65247 2.85715,-2.85715 0.42591,-0.85183 -0.67344,-2.1837 0,-2.85714 0.67343,-0.67343 2.0053,0.42592 2.85714,0 1.20468,-0.60234 1.90476,-1.90476 2.85714,-2.85714 1.90476,-1.90476 4.50961,-3.30493 5.71429,-5.71429 0.42591,-0.85183 -0.67344,-2.18371 0,-2.85714 0.67343,-0.67344 2.1837,0.67343 2.85714,0 0.67344,-0.67344 -0.67344,-2.18371 0,-2.85714 0.67344,-0.67344 2.18371,0.67343 2.85714,0 0.67344,-0.67344 -0.42591,-2.00531 0,-2.85715 0.60234,-1.20467 1.90476,-1.90476 2.85715,-2.85714 0.95238,-0.95238 1.65246,-2.2548 2.85714,-2.85714 0.85183,-0.42592 2.00531,0.42592 2.85714,0 2.40936,-1.20468 3.30493,-4.50961 5.71429,-5.71429 0.85183,-0.42592 2.1837,0.67344 2.85714,0 0.67344,-0.67343 -0.67344,-2.18371 0,-2.85714 0.67344,-0.67344 2.18371,0.67343 2.85714,0 1.34687,-1.34687 -1.34687,-4.36742 0,-5.71429 0.75631,-0.7563 7.39496,0 8.57143,0" />
    <path
       style="fill:none;stroke:#000000;stroke-width:1px;stroke-linecap:butt;stroke-linejoin:miter;stroke-opacity:1"
       d="m 425.71429,315.21933 0,-22.85715 c 0,-0.96102 0.0693,-1.92034 0.18127,-2.87481 0.056,-0.47724 0.10978,-0.95637 0.10195,-1.43682 -0.008,-0.48044 -0.0808,-0.96685 -0.28322,-1.40265 -0.28587,-0.61551 -0.80773,-1.08633 -1.34003,-1.50732 -0.53229,-0.42099 -1.09619,-0.81749 -1.51712,-1.34983 -0.45715,-0.57814 -0.72222,-1.293 -0.83158,-2.02189 -0.10937,-0.72889 -0.0689,-1.47355 0.0388,-2.20268 0.21546,-1.45826 0.6979,-2.87581 0.79278,-4.34685 0.12713,-1.97108 -0.44794,-3.9172 -1.11673,-5.7757 -0.6688,-1.85851 -1.44297,-3.70022 -1.74041,-5.65288 -0.43088,-2.82867 0.1637,-5.71481 0,-8.57142 -0.25051,-4.37155 -2.36735,-8.60524 -5.71429,-11.42858 -2.26572,-2.16499 -3.37073,-5.48 -2.85714,-8.57142 0.16129,-0.97086 0.4705,-1.91522 0.58389,-2.89283 0.0567,-0.48881 0.0636,-0.9863 -0.0221,-1.47086 -0.0857,-0.48456 -0.26677,-0.95678 -0.56181,-1.3506 -0.40989,-0.54712 -1.01004,-0.91208 -1.56307,-1.31397 -0.27652,-0.20094 -0.54562,-0.41519 -0.77528,-0.66837 -0.22966,-0.25317 -0.41967,-0.54767 -0.51879,-0.8748 -0.14944,-0.4932 -0.0838,-1.02856 0.0622,-1.52279 0.14603,-0.49422 0.36933,-0.96186 0.54132,-1.44766 0.172,-0.48579 0.29335,-1.00412 0.22385,-1.51476 -0.0347,-0.25532 -0.11803,-0.50568 -0.25735,-0.72244 -0.13931,-0.21676 -0.33599,-0.39888 -0.57005,-0.50664 -0.21951,-0.10106 -0.46537,-0.13476 -0.70697,-0.12967 -0.24161,0.005 -0.48074,0.0476 -0.71809,0.093 -0.23735,0.0454 -0.47487,0.094 -0.71589,0.11153 -0.24102,0.0175 -0.48744,0.003 -0.71619,-0.0749 -0.4028,-0.13724 -0.72453,-0.46909 -0.8934,-0.85969 -0.16887,-0.39059 -0.19334,-0.83421 -0.11641,-1.25273 0.15385,-0.83705 0.68339,-1.54794 1.18344,-2.23661 0.25002,-0.34434 0.49719,-0.69266 0.69537,-1.06923 0.19817,-0.37657 0.34704,-0.78421 0.38798,-1.20777 0.041,-0.42356 -0.0313,-0.86469 -0.24866,-1.23051 -0.21739,-0.36582 -0.58806,-0.64811 -1.00832,-0.71489 -0.24654,-0.0392 -0.4994,-0.005 -0.74204,0.0534 -0.24263,0.0587 -0.47872,0.14188 -0.72062,0.2035 -0.24191,0.0616 -0.4933,0.10159 -0.7411,0.0714 -0.2478,-0.0302 -0.49327,-0.13679 -0.65339,-0.3283 -0.15627,-0.18691 -0.21894,-0.43727 -0.22591,-0.6808 -0.007,-0.24354 0.0359,-0.48551 0.0806,-0.725 0.0894,-0.479 0.14527,-0.96407 0.14527,-1.45134 l 0,-2.85714 0,-2.85715 c 0,-0.48945 0.0613,-0.97627 0.15899,-1.45587 0.0489,-0.23979 0.0958,-0.48257 0.0879,-0.72716 -0.004,-0.1223 -0.0221,-0.2447 -0.0616,-0.36052 -0.0395,-0.11581 -0.10077,-0.22506 -0.18524,-0.31359 -0.0859,-0.09 -0.19451,-0.15715 -0.3112,-0.2004 -0.1167,-0.0432 -0.24138,-0.063 -0.36581,-0.0652 -0.24886,-0.004 -0.49354,0.0606 -0.73078,0.13586 -0.23724,0.0753 -0.47237,0.16175 -0.71786,0.20277 -0.24549,0.041 -0.50659,0.0336 -0.73149,-0.073 -0.24059,-0.11406 -0.42116,-0.33585 -0.51414,-0.58534 -0.093,-0.2495 -0.10343,-0.52458 -0.0618,-0.78756 0.0832,-0.52597 0.36301,-0.99615 0.57595,-1.48424 0.81574,-1.86975 0.61402,-4.14812 -0.51754,-5.84545 -1.13156,-1.69734 -3.15708,-2.75984 -5.19675,-2.72598"
       id="path2842"
       inkscape:path-effect="#path-effect2844"
       inkscape:original-d="m 425.71429,315.21933 c 0,-7.61905 0,-15.2381 0,-22.85715 0,-1.90476 0.85183,-4.01061 0,-5.71428 -0.60234,-1.20468 -2.53048,-1.55049 -2.85715,-2.85715 -0.69296,-2.77183 0.40406,-5.743 0,-8.57142 -0.55533,-3.88731 -2.30181,-7.54127 -2.85714,-11.42858 -0.40406,-2.82842 0.56033,-5.76977 0,-8.57142 -0.83529,-4.17647 -4.68128,-7.29657 -5.71429,-11.42858 0,-18.9519 1.34687,4.04061 -2.85714,-8.57142 -0.60234,-1.80702 0.60234,-3.90727 0,-5.71429 -0.42592,-1.27775 -2.43122,-1.57939 -2.85714,-2.85714 -0.60234,-1.80702 0.85183,-4.01062 0,-5.71429 -0.42592,-0.85183 -2.18371,0.67344 -2.85714,0 -1.42858,-1.42857 1.42857,-7.14286 0,-8.57143 -0.67344,-0.67343 -2.18371,0.67344 -2.85715,0 -0.67343,-0.67343 0,-1.90476 0,-2.85714 0,-0.95238 0,-1.90476 0,-2.85714 0,-0.95238 0,-1.90477 0,-2.85715 0,-0.95238 0.67344,-2.1837 0,-2.85714 -0.67343,-0.67343 -2.1837,0.67344 -2.85714,0 -0.67344,-0.67343 0.42592,-2.00531 0,-2.85714 -2.26408,-4.52815 -5.71429,-1.97553 -5.71429,-8.57143" />
    <path
       style="fill:none;stroke:#000000;stroke-width:1px;stroke-linecap:butt;stroke-linejoin:miter;stroke-opacity:1"
       d="m 422.85714,320.93361 c -1.60547,-0.26516 -3.08356,-1.22661 -3.97677,-2.58676 -0.89321,-1.36016 -1.18813,-3.09859 -0.79347,-4.67723 0.39466,-1.57864 1.47297,-2.97377 2.90117,-3.75357 1.42821,-0.7798 3.18485,-0.93257 4.72622,-0.41101 0.48674,0.1647 0.95736,0.39426 1.46616,0.46615 0.2544,0.036 0.51736,0.0309 0.76373,-0.042 0.24637,-0.0729 0.47551,-0.21682 0.62725,-0.42415 0.14415,-0.19697 0.21272,-0.44189 0.22751,-0.68552 0.0148,-0.24363 -0.0214,-0.48759 -0.0706,-0.72666 -0.0492,-0.23907 -0.11159,-0.47555 -0.15027,-0.71655 -0.0387,-0.241 -0.0533,-0.48882 -0.007,-0.72841 0.0658,-0.33802 0.2515,-0.64427 0.48589,-0.89656 0.23438,-0.25229 0.51665,-0.45505 0.80498,-0.64334 0.28834,-0.18828 0.58531,-0.36427 0.85998,-0.57199 0.27466,-0.20772 0.52877,-0.45017 0.70629,-0.74526 0.25162,-0.41825 0.33518,-0.92077 0.31743,-1.40856 -0.0177,-0.48778 -0.13101,-0.96655 -0.2494,-1.44008 -0.11839,-0.47353 -0.24293,-0.94838 -0.28402,-1.43476 -0.0411,-0.48637 0.006,-0.99047 0.21599,-1.43088 0.29352,-0.61425 0.86693,-1.03913 1.42046,-1.43544 0.55354,-0.3963 1.13032,-0.81375 1.43668,-1.4217 0.21898,-0.43456 0.28012,-0.935 0.25264,-1.42084 -0.0275,-0.48583 -0.13934,-0.96245 -0.25091,-1.4361 -0.11157,-0.47365 -0.22372,-0.95018 -0.25179,-1.43598 -0.0281,-0.4858 0.0321,-0.98628 0.25006,-1.42137 0.30484,-0.6086 0.88011,-1.02786 1.43314,-1.4247 0.55303,-0.39683 1.12641,-0.82027 1.42401,-1.43244 0.2131,-0.43835 0.26516,-0.94087 0.22945,-1.42696 -0.0357,-0.4861 -0.15497,-0.96162 -0.27036,-1.43516 -0.11539,-0.47355 -0.22786,-0.95137 -0.24956,-1.43829 -0.0217,-0.48692 0.0525,-0.98853 0.29047,-1.41388 0.16709,-0.29864 0.40892,-0.54978 0.67354,-0.76676 0.26461,-0.21699 0.55324,-0.40241 0.83627,-0.59475 0.28303,-0.19235 0.56259,-0.39335 0.80322,-0.63666 0.24063,-0.2433 0.44236,-0.53225 0.54411,-0.85897 0.14275,-0.45836 0.0804,-0.95241 0.0126,-1.42767 -0.0678,-0.47526 -0.13906,-0.96635 -0.0126,-1.42947 0.0902,-0.33032 0.27788,-0.6283 0.50765,-0.88218 0.22976,-0.25388 0.50128,-0.46645 0.78029,-0.66496 0.55801,-0.39701 1.16601,-0.75645 1.5692,-1.31001 0.31777,-0.43627 0.48653,-0.97118 0.52493,-1.50954 0.0384,-0.53836 -0.0492,-1.08065 -0.20849,-1.59633 -0.31865,-1.03136 -0.91405,-1.95036 -1.41169,-2.90827 -0.49764,-0.95791 -0.90941,-2.01372 -0.81122,-3.0887 0.0491,-0.5375 0.23077,-1.06878 0.56054,-1.49605 0.32977,-0.42727 0.81308,-0.74379 1.34593,-0.82968 0.47588,-0.0767 0.95939,0.0282 1.43609,0.0997 0.23835,0.0357 0.47902,0.0632 0.7199,0.0552 0.24088,-0.008 0.48301,-0.0524 0.70116,-0.15485 0.38083,-0.17885 0.66733,-0.52982 0.80962,-0.92576 0.1423,-0.39594 0.14798,-0.8329 0.0617,-1.24468 -0.17263,-0.82356 -0.6883,-1.52585 -1.16661,-2.21816 -0.23915,-0.34615 -0.47285,-0.69801 -0.6562,-1.07669 -0.18335,-0.37868 -0.31587,-0.78677 -0.342,-1.20669 -0.0261,-0.41992 0.0591,-0.85297 0.28317,-1.20906 0.2241,-0.35608 0.59435,-0.62746 1.01035,-0.69039 0.24688,-0.0373 0.49953,-0.002 0.74212,0.0567 0.24258,0.0591 0.47875,0.14229 0.72081,0.20355 0.24206,0.0613 0.49364,0.10058 0.74142,0.0697 0.24778,-0.0309 0.49297,-0.13815 0.65279,-0.33 0.15592,-0.18717 0.21839,-0.43747 0.22534,-0.68098 0.007,-0.2435 -0.0359,-0.48545 -0.0804,-0.72494 -0.0892,-0.47898 -0.14489,-0.96401 -0.14489,-1.45122 0,-0.95238 0,-1.90476 0,-2.85714 0,-8.57143 0,-17.14286 0,-25.71429 0,-0.95238 0,-1.90476 0,-2.85714 0,-0.48887 -0.0599,-0.97522 -0.15543,-1.45465 -0.0478,-0.23972 -0.0937,-0.48227 -0.086,-0.72659 0.008,-0.24431 0.0757,-0.49621 0.24145,-0.6759 0.0843,-0.0914 0.19124,-0.16087 0.30675,-0.207 0.11552,-0.0461 0.23951,-0.0694 0.36377,-0.075 0.24851,-0.0112 0.49488,0.0471 0.73313,0.11866 0.23825,0.0716 0.47322,0.15704 0.71775,0.20274 0.24454,0.0457 0.50347,0.0496 0.73574,-0.0394 0.25033,-0.096 0.45385,-0.29695 0.57572,-0.53577 0.12187,-0.23882 0.1655,-0.51308 0.14939,-0.78071 -0.0322,-0.53526 -0.29133,-1.02776 -0.55861,-1.49263 -0.26727,-0.46488 -0.55358,-0.93477 -0.64984,-1.46229 -0.0481,-0.26376 -0.0462,-0.53947 0.0308,-0.79629 0.077,-0.25682 0.23236,-0.49367 0.45258,-0.6466 0.20011,-0.13897 0.44488,-0.20386 0.68815,-0.21715 0.24327,-0.0133 0.48663,0.0225 0.7255,0.0704 0.47774,0.0959 0.96554,0.24157 1.44349,0.14672 0.27252,-0.0541 0.52758,-0.18632 0.73657,-0.36938 0.20899,-0.18306 0.37239,-0.41593 0.48417,-0.67028 0.22357,-0.50869 0.23783,-1.09139 0.12614,-1.63571 -0.22338,-1.08863 -0.91181,-2.01631 -1.34688,-3.03892 -0.64436,-1.51454 -0.71486,-3.26524 -0.19438,-4.8267 0.52049,-1.56145 1.62731,-2.9197 3.05153,-3.74472"
       id="path2846"
       inkscape:path-effect="#path-effect2848"
       inkscape:original-d="m 422.85714,320.93361 c 5.56229,-0.082 1.40212,-9.97354 2.85715,-11.42857 0.67343,-0.67344 2.1837,0.67343 2.85714,0 0.67343,-0.67344 -0.42592,-2.00531 0,-2.85714 0.60234,-1.20468 2.2548,-1.65247 2.85714,-2.85715 0.85184,-1.70367 -0.85183,-4.01061 0,-5.71428 0.60234,-1.20468 2.25481,-1.65247 2.85714,-2.85714 0.85184,-1.70368 -0.85183,-4.01062 0,-5.71429 0.60234,-1.20468 2.43123,-1.57939 2.85715,-2.85714 0.60234,-1.80702 -0.60234,-3.90727 0,-5.71429 0.42591,-1.27775 2.2548,-1.65246 2.85714,-2.85714 0.42592,-0.85184 -0.42592,-2.00531 0,-2.85714 0.60234,-1.20468 2.2548,-1.65247 2.85714,-2.85715 0.77499,-1.54996 -0.78177,-10.64679 0,-11.42857 0.67344,-0.67343 2.18371,0.67344 2.85715,0 1.42857,-1.42857 -1.42858,-7.14286 0,-8.57143 0.67343,-0.67343 2.1837,0.67344 2.85714,0 0.67343,-0.67343 0,-1.90476 0,-2.85714 0,-0.95238 0,-1.90476 0,-2.85714 0,-8.57143 0,-17.14286 0,-25.71429 0,-0.95238 0,-1.90476 0,-2.85714 0,-0.95238 -0.67344,-2.18371 0,-2.85714 0.67343,-0.67344 2.18371,0.67343 2.85714,0 0.95149,-0.9515 -0.95149,-4.7628 0,-5.71429 0.67344,-0.67344 2.18371,0.67343 2.85714,0 1.34687,-1.34687 -0.85183,-4.01062 0,-5.71429 3.09373,-6.18744 2.85715,1.00442 2.85715,-8.57142" />
    <path
       style="fill:none;stroke:#000000;stroke-width:1px;stroke-linecap:butt;stroke-linejoin:miter;stroke-opacity:1"
       d="m 411.42857,240.93361 c -0.068,-0.78897 0.20866,-1.60162 0.74402,-2.18514 0.53535,-0.58351 1.32123,-0.92902 2.11312,-0.92902 0.7919,0 1.57778,0.34551 2.11313,0.92902 0.53536,0.58352 0.81206,1.39617 0.74402,2.18514 -0.0424,0.49122 -0.2103,0.96305 -0.28295,1.45071 -0.0363,0.24383 -0.0486,0.49323 -0.009,0.73654 0.0397,0.24331 0.13338,0.48104 0.29184,0.66989 0.16764,0.19979 0.40261,0.33784 0.65372,0.40828 0.25111,0.0704 0.5178,0.0756 0.77572,0.0369 0.51585,-0.0773 0.98858,-0.32301 1.45531,-0.5559 0.46674,-0.23289 0.95239,-0.46044 1.47275,-0.49662 0.26017,-0.0181 0.52615,0.0137 0.76711,0.11344 0.24096,0.0998 0.45573,0.27007 0.58967,0.49386 0.12468,0.20832 0.17559,0.45456 0.17929,0.69731 0.004,0.24275 -0.0376,0.48388 -0.0865,0.72168 -0.0489,0.2378 -0.10565,0.47454 -0.13351,0.71571 -0.0279,0.24118 -0.0261,0.48905 0.0408,0.72245 0.11543,0.4032 0.42405,0.73741 0.79894,0.92544 0.37488,0.18803 0.81007,0.23745 1.22608,0.18426 0.83203,-0.10637 1.55861,-0.59504 2.24795,-1.07295 0.68934,-0.4779 1.40983,-0.97252 2.2398,-1.09385 0.41499,-0.0607 0.85064,-0.0211 1.23047,0.15671 0.37982,0.17785 0.69833,0.5016 0.82819,0.90039 0.0749,0.22991 0.0864,0.47651 0.0668,0.71751 -0.0196,0.24099 -0.0695,0.47832 -0.11533,0.71574 -0.0458,0.23742 -0.0876,0.4769 -0.0908,0.71868 -0.003,0.24177 0.0339,0.48761 0.13933,0.70521 0.11213,0.23146 0.2991,0.42328 0.51934,0.55609 0.22024,0.13281 0.47268,0.20807 0.72848,0.23477 0.51159,0.0534 1.02444,-0.0835 1.50618,-0.26376 0.48173,-0.1803 0.94798,-0.40564 1.44417,-0.54121 0.49618,-0.13557 1.03811,-0.17584 1.51612,0.0141 0.31825,0.12646 0.59138,0.34853 0.82047,0.60307 0.22908,0.25455 0.41769,0.54228 0.60561,0.82857 0.18791,0.28629 0.37712,0.57369 0.6072,0.82734 0.23007,0.25365 0.50463,0.47419 0.82386,0.59816 0.48207,0.18721 1.02687,0.13963 1.52394,-0.003 0.49706,-0.14273 0.963,-0.37516 1.44618,-0.5595 0.48317,-0.18434 0.99999,-0.3221 1.51367,-0.26233 0.25684,0.0299 0.50962,0.11018 0.72761,0.24927 0.21798,0.13908 0.39994,0.33846 0.50289,0.57565 0.0965,0.22227 0.12159,0.47025 0.10801,0.71217 -0.0136,0.24192 -0.0643,0.48001 -0.11444,0.71708 -0.0501,0.23707 -0.0998,0.47548 -0.11118,0.71751 -0.0114,0.24204 0.0171,0.4899 0.11761,0.71039 0.10709,0.23501 0.29341,0.43021 0.51446,0.56376 0.22105,0.13354 0.4756,0.20708 0.73281,0.23028 0.51444,0.0464 1.02655,-0.10389 1.5065,-0.29479 0.47995,-0.1909 0.94515,-0.42477 1.44401,-0.55868 0.49886,-0.13391 1.04893,-0.16005 1.5165,0.0594 0.3135,0.14716 0.57019,0.39543 0.78005,0.67093 0.20985,0.2755 0.3776,0.5801 0.55577,0.87708 0.17817,0.29698 0.36967,0.59008 0.61815,0.83132 0.24848,0.24124 0.56026,0.42933 0.90317,0.47781 0.24851,0.0351 0.50205,-0.004 0.74498,-0.0669 0.24293,-0.063 0.47914,-0.14998 0.72199,-0.21333 0.24285,-0.0634 0.49623,-0.10301 0.74487,-0.0688 0.24864,0.0342 0.49354,0.14919 0.64531,0.34908 0.15019,0.1978 0.1959,0.45935 0.17635,0.70694 -0.0195,0.24759 -0.0986,0.48609 -0.17703,0.72174 -0.0784,0.23566 -0.15736,0.47421 -0.17667,0.72181 -0.0193,0.24761 0.0268,0.50914 0.17735,0.70665 0.15211,0.19954 0.3972,0.31399 0.64584,0.34765 0.24864,0.0337 0.50186,-0.006 0.74458,-0.07 0.24273,-0.0636 0.47888,-0.15047 0.72183,-0.21314 0.24295,-0.0627 0.49663,-0.10091 0.74489,-0.0645 0.34274,0.0502 0.65324,0.24091 0.89985,0.48417 0.24662,0.24327 0.43585,0.53787 0.61276,0.8357 0.17691,0.29782 0.34447,0.60277 0.55593,0.87714 0.21147,0.27437 0.47184,0.51993 0.7886,0.66013 0.24179,0.10702 0.50952,0.14914 0.77384,0.14189 0.26432,-0.007 0.52571,-0.0628 0.77732,-0.14407 0.50321,-0.16262 0.9668,-0.42644 1.45264,-0.6353 0.48585,-0.20886 1.01516,-0.36479 1.53908,-0.2929 0.26197,0.036 0.51819,0.13034 0.72933,0.28952 0.21114,0.15917 0.37507,0.38507 0.44208,0.64086 0.0636,0.24282 0.0391,0.50102 -0.0192,0.74517 -0.0583,0.24415 -0.14939,0.47912 -0.22026,0.71993 -0.0709,0.24081 -0.12176,0.49228 -0.0965,0.74201 0.0127,0.12487 0.0446,0.24835 0.10023,0.36086 0.0556,0.11251 0.13535,0.21385 0.23574,0.28918 0.10057,0.0755 0.22023,0.12366 0.34374,0.14719 0.1235,0.0235 0.25087,0.0229 0.37552,0.006 0.24931,-0.0328 0.48561,-0.12723 0.72098,-0.21573 0.23537,-0.0885 0.47708,-0.1727 0.72831,-0.18345 0.12561,-0.005 0.25273,0.008 0.37207,0.0477 0.11933,0.0396 0.23073,0.10593 0.31652,0.19784 0.0862,0.0924 0.14488,0.2087 0.17644,0.33104 0.0316,0.12234 0.0367,0.25062 0.0238,0.3763 -0.0258,0.25138 -0.12158,0.48948 -0.21517,0.7242 -0.0936,0.23473 -0.18695,0.4742 -0.20736,0.72607 -0.0102,0.12594 -0.002,0.25415 0.0338,0.37542 0.0355,0.12128 0.0985,0.23549 0.18854,0.32411 0.0902,0.0888 0.20562,0.14997 0.32763,0.1835 0.12201,0.0335 0.25051,0.0401 0.37647,0.0281 0.25193,-0.024 0.49055,-0.12021 0.72518,-0.21506 0.23462,-0.0949 0.47357,-0.19047 0.72562,-0.21324 0.12602,-0.0114 0.2545,-0.004 0.37626,0.0304 0.12176,0.0344 0.23667,0.0967 0.32598,0.18633 0.0893,0.0897 0.15116,0.20487 0.18516,0.3268 0.034,0.12193 0.0409,0.25049 0.0291,0.37652 -0.0236,0.25206 -0.11989,0.49081 -0.21504,0.72541 -0.0952,0.23461 -0.1913,0.47344 -0.21462,0.72553 -0.0117,0.12604 -0.005,0.25459 0.0296,0.37646 0.0342,0.12187 0.0963,0.23695 0.18582,0.32642 0.0896,0.0895 0.2047,0.15144 0.32661,0.18555 0.12191,0.0341 0.25047,0.0411 0.37652,0.0293 0.25209,-0.0235 0.49088,-0.1198 0.72548,-0.21503 0.2346,-0.0952 0.4734,-0.19148 0.7255,-0.21494 0.12605,-0.0117 0.25461,-0.005 0.37651,0.0294 0.1219,0.0342 0.23702,0.0962 0.32653,0.18569 0.0895,0.0895 0.15151,0.20465 0.18565,0.32655 0.0341,0.12191 0.0411,0.25047 0.0294,0.37652 -0.0235,0.2521 -0.11976,0.4909 -0.21499,0.7255 -0.0952,0.23459 -0.19152,0.47339 -0.21502,0.72548 -0.0117,0.12605 -0.005,0.25462 0.0294,0.37652 0.0341,0.12191 0.0961,0.23705 0.18561,0.32658 0.0895,0.0895 0.2046,0.15156 0.32649,0.18573 0.12189,0.0342 0.25045,0.0412 0.37649,0.0295 0.2521,-0.0234 0.49091,-0.11963 0.72551,-0.21483 0.2346,-0.0952 0.47337,-0.19148 0.72546,-0.21503 0.12604,-0.0118 0.2546,-0.005 0.37651,0.0292 0.12192,0.0341 0.23708,0.096 0.32668,0.18542 0.0896,0.0894 0.1517,0.20444 0.18599,0.32627 0.0343,0.12183 0.0414,0.25036 0.0299,0.37639 -0.0231,0.25208 -0.11909,0.49095 -0.21414,0.72556 -0.095,0.23461 -0.1913,0.47332 -0.21505,0.72533 -0.0119,0.12601 -0.005,0.25454 0.0287,0.3765 0.0338,0.12196 0.0955,0.23724 0.18459,0.32709 0.0891,0.0898 0.20374,0.1523 0.32533,0.18709 0.12159,0.0348 0.24998,0.0425 0.37597,0.0316 0.25199,-0.022 0.49112,-0.11679 0.72578,-0.21121 0.23465,-0.0944 0.47309,-0.19047 0.72483,-0.2151 0.12586,-0.0123 0.25428,-0.006 0.37641,0.0266 0.12213,0.0328 0.23787,0.0932 0.32882,0.18107 0.0907,0.0876 0.15487,0.20085 0.19175,0.32143 0.0369,0.12059 0.0471,0.24841 0.0386,0.37423 -0.017,0.25163 -0.10717,0.49187 -0.19896,0.72678 -0.0918,0.23491 -0.1871,0.4723 -0.21534,0.72292 -0.0141,0.12531 -0.011,0.25326 0.0177,0.37605 0.0287,0.12278 0.0837,0.24037 0.16622,0.33573 0.082,0.0947 0.18962,0.1658 0.30639,0.21115 0.11678,0.0453 0.24251,0.0655 0.36777,0.0667 0.25053,0.002 0.49555,-0.0695 0.73236,-0.15129 0.2368,-0.0818 0.47167,-0.17468 0.71863,-0.21689 0.24696,-0.0422 0.5121,-0.0297 0.732,0.0903 0.22755,0.12423 0.38576,0.35496 0.45652,0.60438 0.0707,0.24942 0.0605,0.51624 0.009,0.77034 -0.10288,0.50821 -0.36431,0.97388 -0.46554,1.48242 -0.15524,0.77989 0.10258,1.63 0.66486,2.19229 0.56228,0.56228 1.41239,0.8201 2.19228,0.66486"
       id="path2850"
       inkscape:path-effect="#path-effect2852"
       inkscape:original-d="m 411.42857,240.93361 c 1.34687,1.34687 4.36742,-1.34687 5.71429,0 0.67343,0.67344 -0.67344,2.18371 0,2.85714 0.96349,0.96349 4.75079,-0.96349 5.71428,0 0.67344,0.67344 -0.67343,2.18371 0,2.85715 1.42857,1.42857 7.14286,-1.42857 8.57143,0 0.67344,0.67343 -0.67343,2.1837 0,2.85714 1.34687,1.34687 4.01062,-0.85184 5.71429,0 1.20467,0.60234 1.65246,2.2548 2.85714,2.85714 1.70367,0.85184 4.36742,-1.34687 5.71429,0 0.67343,0.67344 -0.67344,2.18371 0,2.85715 1.34687,1.34687 4.01061,-0.85184 5.71428,0 1.20468,0.60233 1.65247,2.2548 2.85714,2.85714 0.85184,0.42592 2.18371,-0.67344 2.85715,0 0.67343,0.67343 -0.67344,2.18371 0,2.85714 0.67343,0.67344 2.0053,-0.42592 2.85714,0 1.20468,0.60234 1.65247,2.25481 2.85714,2.85714 1.70367,0.85184 4.36742,-1.34687 5.71429,0 0.67343,0.67344 -0.67344,2.18371 0,2.85715 0.67343,0.67343 2.18371,-0.67344 2.85714,0 0.67344,0.67343 -0.67343,2.1837 0,2.85714 0.67344,0.67343 2.18371,-0.67344 2.85714,0 0.67344,0.67343 -0.67343,2.18371 0,2.85714 0.67344,0.67344 2.18371,-0.67343 2.85715,0 0.67343,0.67344 -0.67344,2.18371 0,2.85715 0.67343,0.67343 2.1837,-0.67344 2.85714,0 0.67344,0.67343 -0.67344,2.1837 0,2.85714 0.67344,0.67343 2.18371,-0.67344 2.85714,0 0.67344,0.67343 -0.67343,2.18371 0,2.85714 0.67344,0.67344 2.18371,-0.67343 2.85715,0 0.67343,0.67344 -0.67344,2.18371 0,2.85714 3.80952,3.80953 2.85714,-4.7619 2.85714,2.85715" />
    <path
       style="fill:none;stroke:#000000;stroke-width:1px;stroke-linecap:butt;stroke-linejoin:miter;stroke-opacity:1"
       d="m 465.71429,186.6479 82.85714,45.71428"
       id="path2854"
       inkscape:path-effect="#path-effect2856"
       inkscape:original-d="m 465.71429,186.6479 82.85714,45.71428" />
    <path
       style="fill:none;stroke:#000000;stroke-width:1px;stroke-linecap:butt;stroke-linejoin:miter;stroke-opacity:1"
       d="m 51.428571,260.93361 c 1.261381,-2.26739 3.715522,-3.82494 6.30418,-4.00101 2.588658,-0.17607 5.231098,1.03482 6.787882,3.11053 1.556783,2.07571 1.979357,4.95151 1.085505,7.38732 -0.893853,2.43581 -3.076254,4.35567 -5.606138,4.93173 -2.063243,0.4698 -4.30092,0.0611 -6.096904,-1.05789 -1.795984,-1.11898 -3.139402,-2.92543 -3.751882,-4.9509 -0.61248,-2.02548 -0.500789,-4.25223 0.254903,-6.22874 0.755692,-1.97652 2.142636,-3.69675 3.879597,-4.90532 0.566854,-0.39442 1.171466,-0.73733 1.701419,-1.18009 0.529953,-0.44276 0.991359,-1.00633 1.155724,-1.67706 0.113808,-0.46442 0.07919,-0.95106 0.0329,-1.42697 -0.04629,-0.47591 -0.10347,-0.95725 -0.0329,-1.43017 0.10203,-0.68375 0.468766,-1.30784 0.940937,-1.81279 0.472172,-0.50496 1.047288,-0.90167 1.633579,-1.26799 0.586292,-0.36631 1.190049,-0.70738 1.744045,-1.12092 0.553996,-0.41354 1.062149,-0.90707 1.395725,-1.51259 0.542078,-0.984 0.575086,-2.15709 0.837912,-3.24935 0.131412,-0.54612 0.326747,-1.08568 0.657821,-1.53945 0.331075,-0.45378 0.810274,-0.81698 1.36141,-0.92548 0.472246,-0.093 0.95814,0.003 1.434149,0.0743 0.476009,0.0712 0.980186,0.11433 1.422994,-0.0743 0.263938,-0.11243 0.490951,-0.30315 0.665002,-0.53121 0.17405,-0.22806 0.296667,-0.49264 0.379655,-0.76726 0.165976,-0.54925 0.175254,-1.13139 0.20392,-1.70445 0.02867,-0.57306 0.08161,-1.15928 0.324784,-1.67898 0.121584,-0.25985 0.290879,-0.49975 0.509813,-0.68515 0.218934,-0.1854 0.488954,-0.3145 0.773968,-0.34724 0.250872,-0.0288 0.5048,0.0166 0.747998,0.0846 0.243197,0.068 0.47973,0.15858 0.723834,0.22323 0.244105,0.0647 0.499865,0.10312 0.749344,0.064 0.12474,-0.0195 0.246936,-0.0586 0.356958,-0.12056 0.110023,-0.0619 0.207666,-0.14711 0.279009,-0.25128 0.07094,-0.10358 0.11491,-0.2244 0.135215,-0.34828 0.0203,-0.12389 0.01741,-0.25089 -3.8e-4,-0.37516 -0.03559,-0.24854 -0.129473,-0.4843 -0.215915,-0.72003 -0.08644,-0.23573 -0.16694,-0.47839 -0.173788,-0.72938 -0.0034,-0.12549 0.01199,-0.25218 0.05325,-0.37075 0.04126,-0.11856 0.108946,-0.22885 0.201616,-0.31354 0.0932,-0.0852 0.209854,-0.14282 0.332292,-0.17364 0.122437,-0.0308 0.250592,-0.0354 0.376161,-0.0223 0.251138,0.0263 0.489058,0.12178 0.723836,0.21473 0.234779,0.093 0.474427,0.18535 0.726178,0.20491 0.125876,0.01 0.253953,8.7e-4 0.375056,-0.0348 0.121103,-0.0357 0.235109,-0.0989 0.32362,-0.18889 0.08864,-0.0902 0.149887,-0.20544 0.183578,-0.32731 0.03369,-0.12187 0.04051,-0.25025 0.02883,-0.37616 -0.02336,-0.2518 -0.118705,-0.49055 -0.21298,-0.72521 -0.09428,-0.23467 -0.189527,-0.47347 -0.212681,-0.7253 -0.01158,-0.12591 -0.0046,-0.25429 0.02921,-0.37612 0.03384,-0.12183 0.09525,-0.23701 0.184041,-0.32704 0.08868,-0.0899 0.202845,-0.15287 0.324053,-0.18834 0.121208,-0.0355 0.24934,-0.0441 0.37523,-0.0341 0.251781,0.0201 0.49131,0.11294 0.726065,0.20614 0.234754,0.0932 0.472785,0.18874 0.724034,0.21464 0.125624,0.0129 0.253823,0.008 0.376189,-0.0232 0.122365,-0.0312 0.238826,-0.0894 0.331572,-0.17515 0.09226,-0.0853 0.159248,-0.19612 0.199649,-0.31507 0.0404,-0.11895 0.05482,-0.24585 0.05041,-0.3714 -0.0088,-0.2511 -0.09114,-0.49328 -0.178589,-0.72882 -0.08745,-0.23554 -0.181573,-0.47157 -0.215748,-0.72048 -0.01709,-0.12446 -0.01884,-0.25164 0.0031,-0.37533 0.02192,-0.1237 0.068,-0.24395 0.141199,-0.34605 0.07332,-0.10226 0.17279,-0.18472 0.284037,-0.24352 0.111246,-0.0588 0.234068,-0.0944 0.358862,-0.11048 0.249586,-0.0323 0.503183,0.0123 0.745574,0.08 0.242392,0.0677 0.478016,0.15845 0.721617,0.22164 0.243601,0.0632 0.499638,0.0984 0.747053,0.0523 0.343165,-0.0639 0.642869,-0.28043 0.871222,-0.54443 0.228352,-0.264 0.394136,-0.57515 0.557878,-0.88342 0.163742,-0.30827 0.329379,-0.61948 0.557498,-0.88368 0.22812,-0.2642 0.527493,-0.48114 0.870545,-0.54561 0.247153,-0.0464 0.503069,-0.0119 0.746624,0.0508 0.243555,0.0626 0.479172,0.1529 0.721446,0.22032 0.242274,0.0674 0.495605,0.11201 0.74507,0.0802 0.124733,-0.0159 0.247543,-0.0511 0.358934,-0.10939 0.111391,-0.0583 0.21117,-0.14021 0.285069,-0.24194 0.07369,-0.10145 0.120609,-0.22109 0.143527,-0.34437 0.02292,-0.12328 0.02233,-0.25022 0.0064,-0.37459 -0.0319,-0.24875 -0.123865,-0.48515 -0.210099,-0.72064 -0.08623,-0.23549 -0.168266,-0.47699 -0.178842,-0.72755 -0.0053,-0.12528 0.0077,-0.25201 0.04618,-0.37135 0.03847,-0.11934 0.103,-0.23119 0.19286,-0.31864 0.08998,-0.0876 0.203694,-0.14907 0.32417,-0.18442 0.120477,-0.0354 0.24762,-0.0451 0.372909,-0.037 0.250578,0.0164 0.490649,0.10279 0.725791,0.19091 0.235141,0.0881 0.472567,0.17959 0.722204,0.20675 0.124819,0.0136 0.252076,0.0107 0.374591,-0.0168 0.122515,-0.0275 0.240271,-0.08 0.337477,-0.15952 0.09687,-0.0792 0.171707,-0.18381 0.221907,-0.29842 0.0502,-0.11461 0.07623,-0.23905 0.08333,-0.36397 0.0142,-0.24984 -0.04613,-0.49793 -0.121442,-0.73658 -0.07531,-0.23864 -0.166269,-0.47322 -0.216442,-0.71839 -0.05017,-0.24516 -0.05743,-0.50631 0.03265,-0.73978 0.09831,-0.25482 0.309014,-0.4586 0.556742,-0.57362 0.247728,-0.11502 0.529692,-0.14544 0.800993,-0.11391 0.542603,0.0631 1.026275,0.35928 1.487946,0.65126 0.461671,0.29198 0.939905,0.59409 1.480653,0.67147 0.270374,0.0387 0.552711,0.0176 0.804802,-0.0875 0.25209,-0.10512 0.471515,-0.29847 0.58315,-0.54774 0.100951,-0.22542 0.110155,-0.48283 0.07437,-0.72722 -0.03578,-0.24438 -0.114147,-0.48012 -0.183141,-0.71728 -0.06899,-0.23715 -0.12931,-0.48021 -0.127355,-0.72719 0.002,-0.24698 0.07184,-0.50102 0.236125,-0.68546 0.165454,-0.18575 0.412773,-0.28464 0.660336,-0.30897 0.247563,-0.0243 0.497025,0.0197 0.737679,0.0827 0.240654,0.063 0.476305,0.14497 0.719143,0.19891 0.242839,0.0539 0.496698,0.0792 0.739985,0.0273 0.34098,-0.0727 0.63615,-0.29281 0.86245,-0.55803 0.2263,-0.26522 0.39205,-0.57562 0.55713,-0.88271 0.16508,-0.30708 0.33331,-0.61647 0.56355,-0.87828 0.23024,-0.26181 0.53101,-0.47564 0.87401,-0.53812 0.2475,-0.0451 0.50329,-0.01 0.74682,0.0535 0.24353,0.0631 0.47921,0.15346 0.72163,0.22071 0.24242,0.0673 0.49596,0.11139 0.74545,0.079 0.12474,-0.0162 0.2475,-0.0517 0.35877,-0.11037 0.11127,-0.0587 0.21085,-0.14086 0.28448,-0.24285 0.0734,-0.1017 0.12,-0.22151 0.14259,-0.3449 0.0226,-0.12338 0.0216,-0.25036 0.005,-0.37474 -0.0325,-0.24875 -0.1249,-0.48504 -0.21132,-0.72056 -0.0864,-0.23551 -0.16838,-0.47719 -0.17843,-0.72785 -0.005,-0.12533 0.008,-0.25208 0.0473,-0.37132 0.0389,-0.11923 0.10405,-0.23082 0.19446,-0.31777 0.0906,-0.0871 0.20489,-0.14789 0.32576,-0.18234 0.12088,-0.0345 0.24823,-0.0432 0.37358,-0.034 0.2507,0.0184 0.49032,0.10671 0.72536,0.19587 0.23503,0.0891 0.47285,0.18086 0.72291,0.20652 0.12503,0.0128 0.25246,0.009 0.37472,-0.0204 0.12226,-0.0291 0.23931,-0.0839 0.33481,-0.16564 0.0951,-0.0813 0.16709,-0.18798 0.21397,-0.30397 0.0469,-0.11599 0.0691,-0.24115 0.0725,-0.36621 0.007,-0.25011 -0.0603,-0.49618 -0.13921,-0.73362 -0.0789,-0.23745 -0.17046,-0.47215 -0.21541,-0.71828 -0.045,-0.24614 -0.0401,-0.50949 0.0682,-0.73507 0.11451,-0.23863 0.33824,-0.41517 0.58787,-0.50318 0.24962,-0.088 0.52309,-0.093 0.78399,-0.0484 0.52179,0.0892 0.98941,0.3663 1.48528,0.55161 1.11905,0.41821 2.41063,0.34969 3.47914,-0.18457 1.06852,-0.53426 1.89828,-1.52641 2.23515,-2.67257"
       id="path2858"
       inkscape:path-effect="#path-effect2860"
       inkscape:original-d="m 51.428571,260.93361 c 2.857143,3.80952 5.204254,14.79575 8.571429,11.42857 15.699273,-15.69927 -9.756365,-9.0587 -5.714286,-17.14285 0.602339,-1.20468 2.254805,-1.65247 2.857143,-2.85715 0.425918,-0.85183 -0.425918,-2.0053 0,-2.85714 0.49566,-0.99132 5.218626,-4.72297 5.714286,-5.71429 1.97051,-3.94102 -3.460157,-2.55563 2.857143,-5.71428 0.851835,-0.42592 2.183708,0.67343 2.857143,0 5.91153,-5.91153 -9.033602,0.23108 2.857142,-5.71429 0.851836,-0.42592 2.183708,0.67344 2.857143,0 0.673435,-0.67343 -0.673435,-2.18371 0,-2.85714 0.673435,-0.67344 2.183708,0.67343 2.857143,0 0.673435,-0.67344 -0.673435,-2.18371 0,-2.85714 0.673435,-0.67344 2.183708,0.67343 2.857143,0 0.673435,-0.67344 -0.673435,-2.18371 0,-2.85715 0.673435,-0.67343 2.005307,0.42592 2.857143,0 1.204677,-0.60233 1.652466,-2.2548 2.857143,-2.85714 0.851835,-0.42592 2.183708,0.67344 2.857143,0 0.673435,-0.67343 -0.673435,-2.18371 0,-2.85714 0.673435,-0.67344 2.183707,0.67343 2.857142,0 0.673435,-0.67344 -0.673435,-2.18371 0,-2.85714 1.34687,-1.34687 4.367416,1.34687 5.714286,0 0.673435,-0.67344 -0.673435,-2.18371 0,-2.85715 0.673435,-0.67343 2.005308,0.42592 2.857143,0 1.20468,-0.60234 1.65247,-2.2548 2.85714,-2.85714 0.85184,-0.42592 2.18371,0.67343 2.85715,0 0.67343,-0.67344 -0.67344,-2.18371 0,-2.85714 0.67343,-0.67344 2.1837,0.67343 2.85714,0 0.67343,-0.67344 -0.67344,-2.18371 0,-2.85715 0.67343,-0.67343 2.00531,0.42592 2.85714,0 7.06116,-3.53057 -0.98622,-2.85714 5.71429,-2.85714" />
    <path
       style="fill:none;stroke:#000000;stroke-width:1px;stroke-linecap:butt;stroke-linejoin:miter;stroke-opacity:1"
       d="m 57.142857,1020.9336 c 0.325282,0.067 0.625498,0.25 0.835186,0.5077 0.209689,0.2577 0.327362,0.5887 0.327362,0.9209 0,0.3322 -0.117673,0.6632 -0.327362,0.9209 -0.209688,0.2577 -0.509904,0.4402 -0.835186,0.5077 -0.23839,0.049 -0.485748,0.038 -0.726617,0 -0.240869,-0.036 -0.477434,-0.095 -0.716151,-0.1429 -0.238718,-0.048 -0.481763,-0.084 -0.724931,-0.072 -0.243168,0.012 -0.48807,0.075 -0.689444,0.212 -0.220101,0.1496 -0.377745,0.3819 -0.458949,0.6353 -0.0812,0.2534 -0.08903,0.5269 -0.04706,0.7896 0.08393,0.5256 0.357452,0.9984 0.616857,1.4631 0.259405,0.4648 0.514839,0.9522 0.556489,1.4827 0.02083,0.2653 -0.0145,0.5379 -0.125462,0.7798 -0.110964,0.2418 -0.30075,0.4511 -0.541873,0.5637 -0.221939,0.1036 -0.475799,0.122 -0.719368,0.096 -0.243569,-0.026 -0.480375,-0.094 -0.717179,-0.1564 -0.236804,-0.063 -0.477284,-0.1205 -0.72217,-0.1256 -0.244887,-0.01 -0.497196,0.046 -0.698426,0.1859 -0.209725,0.1455 -0.349532,0.3785 -0.412489,0.6259 -0.06296,0.2474 -0.05379,0.5087 -0.0079,0.7599 0.09179,0.5022 0.326064,0.9696 0.420383,1.4714 0.152964,0.8138 -0.07392,1.6542 -0.40793,2.4119 -0.33401,0.7577 -0.77539,1.4656 -1.087119,2.2327 -0.311728,0.7671 -0.48931,1.6268 -0.265681,2.4241 0.111814,0.3986 0.325378,0.7725 0.633541,1.049 0.308162,0.2765 0.713194,0.4505 1.127189,0.4537 0.508168,0 0.981574,-0.239 1.475524,-0.3584 0.246975,-0.06 0.506,-0.089 0.755255,-0.039 0.249254,0.049 0.488677,0.184 0.626364,0.3976 0.135647,0.2104 0.161141,0.4763 0.125673,0.7241 -0.03547,0.2478 -0.12673,0.4836 -0.210324,0.7195 -0.08359,0.236 -0.16087,0.4787 -0.166447,0.729 -0.0028,0.1251 0.01274,0.2513 0.05336,0.3697 0.04062,0.1184 0.106876,0.2288 0.197741,0.3149 0.09105,0.086 0.205176,0.1465 0.325777,0.1809 0.120601,0.034 0.247596,0.044 0.372728,0.035 0.250263,-0.017 0.490088,-0.1029 0.725264,-0.1902 0.235175,-0.087 0.472772,-0.1774 0.722242,-0.2036 0.124735,-0.013 0.251826,-0.01 0.374143,0.018 0.122316,0.028 0.239843,0.08 0.336989,0.1597 0.0969,0.079 0.171913,0.1835 0.222452,0.298 0.05054,0.1144 0.07705,0.2387 0.08469,0.3635 0.01527,0.2498 -0.04381,0.4981 -0.11832,0.7369 -0.07452,0.2389 -0.165082,0.4735 -0.215888,0.7185 -0.0508,0.245 -0.05987,0.5056 0.02707,0.7402 0.0938,0.2531 0.296257,0.459 0.537285,0.5805 0.241029,0.1215 0.517984,0.1624 0.787157,0.1422 0.538345,-0.04 1.028905,-0.312 1.492607,-0.5885 0.463701,-0.2764 0.935339,-0.5699 1.467212,-0.6624 0.265937,-0.046 0.544137,-0.039 0.800278,0.046 0.256141,0.085 0.488768,0.2523 0.629747,0.4825 0.127108,0.2075 0.175168,0.4561 0.173653,0.6995 -0.0015,0.2433 -0.05,0.4838 -0.104079,0.7211 -0.05408,0.2373 -0.114119,0.4741 -0.139399,0.7162 -0.02528,0.242 -0.0145,0.492 0.06983,0.7203 0.09025,0.2443 0.262989,0.4547 0.475648,0.6051 0.212659,0.1504 0.463859,0.2422 0.721278,0.2819 0.514838,0.079 1.040463,-0.046 1.528817,-0.2275 0.488354,-0.1813 0.955515,-0.4188 1.45186,-0.5769 0.496344,-0.1582 1.038144,-0.2337 1.536683,-0.083 0.327189,0.099 0.620536,0.2918 0.871325,0.5242 0.250789,0.2323 0.461677,0.5042 0.660315,0.7824 0.397275,0.5565 0.764879,1.1592 1.325502,1.5506 0.607768,0.4244 1.383953,0.551 2.123201,0.4964 0.739248,-0.054 1.45463,-0.276 2.162466,-0.4961 0.707836,-0.2201 1.423196,-0.4416 2.162436,-0.4963 0.73924,-0.055 1.515436,0.072 2.123326,0.496 0.560703,0.3913 0.928507,0.9937 1.32583,1.5501 0.198661,0.2783 0.409533,0.5501 0.660259,0.7824 0.250725,0.2324 0.543955,0.4252 0.871054,0.5246 0.498076,0.1513 1.039526,0.077 1.535749,-0.081 0.496224,-0.1573 0.963394,-0.3939 1.45154,-0.5747 0.488146,-0.1808 1.013247,-0.3063 1.527829,-0.2277 0.25729,0.039 0.508459,0.1305 0.721417,0.2802 0.212958,0.1496 0.386347,0.3591 0.477751,0.6028 0.08541,0.2277 0.09767,0.4774 0.07368,0.7195 -0.02398,0.242 -0.0829,0.4789 -0.136426,0.7162 -0.05353,0.2372 -0.102022,0.4775 -0.104586,0.7207 -0.0026,0.2431 0.04327,0.4916 0.167331,0.7008 0.135858,0.2291 0.360488,0.3992 0.610397,0.4913 0.249909,0.092 0.523681,0.1093 0.787677,0.074 0.527993,-0.07 1.005225,-0.3402 1.469275,-0.6017 0.46405,-0.2615 0.946091,-0.5253 1.475748,-0.5819 0.264828,-0.028 0.538309,-0 0.784405,0.1 0.246096,0.1018 0.463116,0.2825 0.586783,0.5184 0.113205,0.2159 0.144398,0.4673 0.129361,0.7107 -0.01504,0.2433 -0.07393,0.4815 -0.132318,0.7182 -0.05839,0.2367 -0.116791,0.4751 -0.130814,0.7185 -0.01402,0.2434 0.01877,0.4947 0.133771,0.7097 0.126185,0.2359 0.346596,0.4149 0.595238,0.5136 0.248643,0.099 0.523815,0.1204 0.789305,0.088 0.530979,-0.066 1.010442,-0.3389 1.473991,-0.606 0.46355,-0.2672 0.943668,-0.5396 1.474874,-0.6034 0.265603,-0.032 0.540735,-0.01 0.788856,0.091 0.248121,0.1 0.467491,0.2803 0.592022,0.5171 0.11356,0.2159 0.14437,0.4676 0.12865,0.7111 -0.0157,0.2434 -0.0755,0.4816 -0.134626,0.7182 -0.05907,0.2367 -0.117912,0.4752 -0.131584,0.7188 -0.01367,0.2435 0.02038,0.4951 0.13756,0.7091 0.12991,0.2372 0.35681,0.4142 0.61064,0.5076 0.25383,0.093 0.53283,0.1067 0.80001,0.065 0.53437,-0.084 1.00904,-0.3768 1.47195,-0.6566 0.46291,-0.2798 0.94961,-0.5591 1.4881,-0.6101 0.26924,-0.026 0.54745,0.01 0.79167,0.1255 0.24421,0.1162 0.45191,0.3175 0.55192,0.5688 0.092,0.2311 0.0899,0.4904 0.045,0.7351 -0.0449,0.2447 -0.13056,0.4797 -0.20273,0.7177 -0.0722,0.2381 -0.13156,0.4842 -0.12149,0.7327 0.005,0.1243 0.0277,0.2484 0.0734,0.3641 0.0457,0.1157 0.11469,0.2229 0.20589,0.3075 0.17925,0.1663 0.43124,0.2347 0.67561,0.2424 0.24436,0.01 0.48695,-0.038 0.72668,-0.086 0.47946,-0.096 0.96589,-0.156 1.45485,-0.156 l 5.71428,0"
       id="path2862"
       inkscape:path-effect="#path-effect2864"
       inkscape:original-d="m 57.142857,1020.9336 c 0,0.9524 0.673435,2.1837 0,2.8572 -0.673435,0.6734 -2.183708,-0.6735 -2.857143,0 -1.34687,1.3468 1.34687,4.3674 0,5.7142 -0.673435,0.6735 -2.183708,-0.6734 -2.857143,0 -0.673435,0.6735 0,1.9048 0,2.8572 0,1.1765 -0.756302,7.8151 0,8.5714 0.673435,0.6734 2.183708,-0.6734 2.857143,0 0.673435,0.6734 -0.673435,2.1837 0,2.8572 0.673435,0.6734 2.183708,-0.6735 2.857143,0 0.673435,0.6734 -0.673435,2.1837 0,2.8571 1.34687,1.3469 4.367416,-1.3469 5.714286,0 0.673435,0.6734 -0.673435,2.1837 0,2.8571 1.34687,1.3469 4.010615,-0.8518 5.714286,0 1.204677,0.6024 1.652465,2.2548 2.857142,2.8572 2.285715,1.1428 6.285715,-1.1429 8.571429,0 1.204677,0.6023 1.652466,2.2548 2.857143,2.8571 1.703671,0.8519 4.367416,-1.3468 5.714286,0 0.673435,0.6735 -0.673435,2.1837 0,2.8572 1.34687,1.3468 4.367415,-1.3469 5.714285,0 0.673435,0.6734 -0.673435,2.1837 0,2.8571 1.34687,1.3469 4.367416,-1.3469 5.714286,0 0.67344,0.6734 -0.673435,2.1837 0,2.8572 1.34687,1.3468 4.36742,-1.3469 5.71429,0 0.67343,0.6734 -0.67344,2.1837 0,2.8571 0.67343,0.6734 1.90476,0 2.85714,0 1.90476,0 3.80952,0 5.71428,0" />
    <path
       style="fill:none;stroke:#000000;stroke-width:1px;stroke-linecap:butt;stroke-linejoin:miter;stroke-opacity:1"
       d="m 608.57143,1032.3622 c 0.41406,-2.1315 1.51,-4.1252 3.08775,-5.617 1.57775,-1.4918 3.6296,-2.4745 5.78095,-2.7687 2.15135,-0.2941 4.39169,0.1017 6.312,1.1152 1.92032,1.0135 3.51123,2.6398 4.48229,4.5819 0.97106,1.9421 1.31753,4.1906 0.97615,6.335 -0.34138,2.1444 -1.36894,4.1741 -2.89509,5.7187 -1.52614,1.5446 -3.54341,2.5964 -5.68352,2.9635 -2.14011,0.3671 -4.3926,0.048 -6.34625,-0.9 -3.04039,-1.4748 -5.27174,-4.496 -5.81736,-7.8308 -0.54562,-3.3349 0.59747,-6.8962 2.96022,-9.3121 0.94334,-0.9646 2.07032,-1.7611 2.85714,-2.8571 0.40736,-0.5674 0.71436,-1.2036 1.14266,-1.7554 0.21415,-0.2759 0.45945,-0.5306 0.74719,-0.7286 0.28773,-0.1979 0.61985,-0.3378 0.9673,-0.3732 0.48601,-0.049 0.96621,0.1042 1.44668,0.1926 0.24023,0.044 0.4855,0.072 0.72876,0.05 0.24326,-0.022 0.4857,-0.097 0.6817,-0.2426 0.207,-0.1539 0.35338,-0.3816 0.43083,-0.6277 0.0774,-0.246 0.0887,-0.5098 0.0568,-0.7658 -0.0637,-0.512 -0.2927,-0.9859 -0.48766,-1.4636 -0.82233,-2.0148 -1.06885,-4.2646 -0.67776,-6.4053 0.3911,-2.1408 1.42171,-4.164 2.94128,-5.7218 1.51956,-1.5578 3.52413,-2.6408 5.66458,-3.0335 2.14045,-0.3927 4.40667,-0.089 6.35761,0.8749 0.47924,0.2368 0.95269,0.5166 1.48172,0.5933 0.26452,0.038 0.54039,0.023 0.7896,-0.074 0.24922,-0.097 0.4697,-0.2789 0.58583,-0.5196 0.10733,-0.2225 0.12096,-0.4805 0.0872,-0.7252 -0.0338,-0.2447 -0.11216,-0.4807 -0.1823,-0.7175 -0.0701,-0.2369 -0.13278,-0.4794 -0.13351,-0.7264 -7.3e-4,-0.247 0.0661,-0.502 0.22861,-0.6881 0.16377,-0.1876 0.41081,-0.2885 0.65851,-0.3141 0.24769,-0.025 0.49762,0.018 0.73853,0.081 0.2409,0.063 0.4766,0.1457 0.71944,0.2008 0.24284,0.055 0.49668,0.082 0.74066,0.032 0.3411,-0.07 0.63838,-0.2855 0.86753,-0.5476 0.22915,-0.2621 0.39822,-0.57013 0.56492,-0.87575 0.1667,-0.30562 0.3347,-0.61414 0.56217,-0.87767 0.22746,-0.26354 0.52234,-0.48213 0.86252,-0.55611 0.24228,-0.0527 0.49535,-0.0299 0.73794,0.0213 0.24258,0.0513 0.47831,0.13045 0.71857,0.19172 0.24026,0.0613 0.48864,0.10476 0.73558,0.0825 0.24694,-0.0223 0.49419,-0.11589 0.66506,-0.29556 0.1702,-0.17897 0.2513,-0.42906 0.26392,-0.67572 0.0126,-0.24665 -0.0378,-0.49221 -0.10162,-0.73081 -0.0638,-0.2386 -0.1413,-0.4741 -0.18474,-0.71723 -0.0434,-0.24312 -0.0516,-0.49775 0.0224,-0.73338 0.0787,-0.25044 0.24868,-0.46802 0.4622,-0.62074 0.21351,-0.15272 0.46871,-0.24239 0.72904,-0.27617 0.52065,-0.0676 1.0457,0.0831 1.53054,0.28453 0.48484,0.20143 0.94913,0.45552 1.45039,0.61166 0.25063,0.0781 0.51037,0.13121 0.77279,0.13794 0.26242,0.007 0.52798,-0.0339 0.76932,-0.13722 0.27773,-0.11885 0.51932,-0.32068 0.68568,-0.57283 0.16637,-0.25215 0.25687,-0.55366 0.25687,-0.85575 0,-0.30208 -0.0905,-0.60359 -0.25687,-0.85574 -0.16636,-0.25215 -0.40795,-0.45398 -0.68568,-0.57283 -0.0466,-0.75973 0.24672,-1.53398 0.78494,-2.0722 0.53822,-0.53822 1.31247,-0.8315 2.0722,-0.78494 0.54246,0.0332 1.06136,0.22907 1.55708,0.45183 0.49573,0.22277 0.9807,0.47564 1.50042,0.63455 0.51973,0.15891 1.08739,0.21904 1.60402,0.0503 0.25832,-0.0843 0.49971,-0.22596 0.68819,-0.4217 0.18848,-0.19575 0.32232,-0.4466 0.36458,-0.71503 0.0392,-0.24884 4e-5,-0.50396 -0.0649,-0.74736 -0.0649,-0.2434 -0.15537,-0.47936 -0.22169,-0.72238 -0.0663,-0.24302 -0.1084,-0.49737 -0.0736,-0.74686 0.0174,-0.12474 0.0543,-0.2473 0.11413,-0.35811 0.0599,-0.11081 0.14318,-0.20966 0.24599,-0.28243 0.10242,-0.0725 0.22264,-0.11808 0.34623,-0.13978 0.1236,-0.0217 0.2506,-0.02 0.37494,-0.003 0.24869,0.0338 0.48476,0.12683 0.72035,0.21333 0.23559,0.0865 0.47766,0.16796 0.72847,0.17674 0.1254,0.004 0.25214,-0.01 0.37111,-0.0497 0.11897,-0.0399 0.23004,-0.10609 0.31604,-0.19747 0.0863,-0.0917 0.14574,-0.207 0.17863,-0.32855 0.0329,-0.12154 0.0399,-0.24924 0.029,-0.37469 -0.0218,-0.25089 -0.11324,-0.48976 -0.20405,-0.72465 -0.0908,-0.23489 -0.18284,-0.47345 -0.2059,-0.72423 -0.0115,-0.12539 -0.005,-0.2531 0.0266,-0.37489 0.032,-0.12179 0.0904,-0.23758 0.17575,-0.33014 0.0834,-0.0904 0.19077,-0.1569 0.30597,-0.19984 0.1152,-0.0429 0.23816,-0.0629 0.36102,-0.0673 0.24572,-0.009 0.48936,0.0419 0.72948,0.0948 0.48025,0.1058 0.96892,0.17233 1.46068,0.17233 l 2.85714,0"
       id="path2866"
       inkscape:path-effect="#path-effect2868"
       inkscape:original-d="m 608.57143,1032.3622 c 1.90476,3.8095 2.70259,14.4402 5.71428,11.4286 18.0231,-18.0231 -6.98872,-8.8797 -2.85714,-17.1429 0.60234,-1.2047 1.90476,-1.9048 2.85714,-2.8571 0.95239,-0.9524 1.65247,-2.2549 2.85715,-2.8572 0.85183,-0.4259 2.1837,0.6734 2.85714,0 0.67344,-0.6734 -0.42592,-2.0053 0,-2.8571 0.39836,-0.7967 13.489,-13.8874 14.28571,-14.2857 0.85184,-0.426 2.18371,0.6734 2.85715,0 0.67343,-0.6735 -0.67344,-2.1838 0,-2.8572 0.67343,-0.6734 2.0053,0.4259 2.85714,0 1.20468,-0.6023 1.65247,-2.25479 2.85714,-2.85713 0.85184,-0.42592 2.18371,0.67343 2.85715,0 0.67343,-0.67344 -0.67344,-2.18371 0,-2.85714 1.34687,-1.34687 4.36741,1.34687 5.71428,0 0.67344,-0.67344 -0.67343,-2.18371 0,-2.85715 7.61905,0 -0.95238,0.95238 2.85714,-2.85714 1.34687,-1.34687 4.36742,1.34687 5.71429,0 0.67344,-0.67344 -0.67344,-2.18371 0,-2.85714 0.67344,-0.67344 2.18371,0.67343 2.85714,0 0.67344,-0.67344 -0.67343,-2.18371 0,-2.85715 0.67344,-0.67343 1.90476,0 2.85715,0 0.95238,0 1.90476,0 2.85714,0" />
    <text
       xml:space="preserve"
       style="font-size:22px;font-style:normal;font-weight:normal;fill:#000000;fill-opacity:1;stroke:none;font-family:Bitstream Vera Sans"
       x="697.14288"
       y="952.36218"
       id="text2870"><tspan
         sodipodi:role="line"
         id="tspan2872"
         x="697.14288"
         y="952.36218">a</tspan></text>
    <text
       xml:space="preserve"
       style="font-size:22px;font-style:normal;font-weight:normal;fill:#000000;fill-opacity:1;stroke:none;font-family:Bitstream Vera Sans"
       x="45.714287"
       y="949.50507"
       id="text2874"><tspan
         sodipodi:role="line"
         id="tspan2876"
         x="45.714287"
         y="949.50507">b</tspan></text>
    <text
       xml:space="preserve"
       style="font-size:22px;font-style:normal;font-weight:normal;fill:#000000;fill-opacity:1;stroke:none;font-family:Bitstream Vera Sans"
       x="45.714287"
       y="669.50507"
       id="text2878"><tspan
         sodipodi:role="line"
         id="tspan2880"
         x="45.714287"
         y="669.50507">c</tspan></text>
    <text
       xml:space="preserve"
       style="font-size:22px;font-style:normal;font-weight:normal;fill:#000000;fill-opacity:1;stroke:none;font-family:Bitstream Vera Sans"
       x="37.142857"
       y="206.6479"
       id="text2882"><tspan
         sodipodi:role="line"
         id="tspan2884"
         x="37.142857"
         y="206.6479">d</tspan></text>
    <text
       xml:space="preserve"
       style="font-size:22px;font-style:normal;font-weight:normal;fill:#000000;fill-opacity:1;stroke:none;font-family:Bitstream Vera Sans"
       x="451.42856"
       y="683.79077"
       id="text2886"><tspan
         sodipodi:role="line"
         id="tspan2888"
         x="451.42856"
         y="683.79077">f</tspan></text>
    <text
       xml:space="preserve"
       style="font-size:22px;font-style:normal;font-weight:normal;fill:#000000;fill-opacity:1;stroke:none;font-family:Bitstream Vera Sans"
       x="248.57143"
       y="189.50504"
       id="text2890"><tspan
         sodipodi:role="line"
         x="248.57143"
         y="189.50504"
         id="tspan2894">e</tspan></text>
    <text
       xml:space="preserve"
       style="font-size:22px;font-style:normal;font-weight:normal;fill:#000000;fill-opacity:1;stroke:none;font-family:Bitstream Vera Sans"
       x="454.28571"
       y="489.50504"
       id="text2898"><tspan
         sodipodi:role="line"
         id="tspan2900"
         x="454.28571"
         y="489.50504">g</tspan></text>
    <text
       xml:space="preserve"
       style="font-size:22px;font-style:normal;font-weight:normal;fill:#000000;fill-opacity:1;stroke:none;font-family:Bitstream Vera Sans"
       x="414.28571"
       y="103.79075"
       id="text2902"><tspan
         sodipodi:role="line"
         id="tspan2904"
         x="414.28571"
         y="103.79075">h</tspan></text>
    <text
       xml:space="preserve"
       style="font-size:22px;font-style:normal;font-weight:normal;fill:#000000;fill-opacity:1;stroke:none;font-family:Bitstream Vera Sans"
       x="505.71429"
       y="300.93362"
       id="text2906"><tspan
         sodipodi:role="line"
         id="tspan2908"
         x="505.71429"
         y="300.93362">i</tspan></text>
  </g>
</svg>
