<?xml version="1.0" encoding="UTF-8" standalone="no"?>
<!-- Created with Inkscape (http://www.inkscape.org/) -->

<svg
   xmlns:dc="http://purl.org/dc/elements/1.1/"
   xmlns:cc="http://creativecommons.org/ns#"
   xmlns:rdf="http://www.w3.org/1999/02/22-rdf-syntax-ns#"
   xmlns:svg="http://www.w3.org/2000/svg"
   xmlns="http://www.w3.org/2000/svg"
   xmlns:xlink="http://www.w3.org/1999/xlink"
   xmlns:sodipodi="http://sodipodi.sourceforge.net/DTD/sodipodi-0.dtd"
   xmlns:inkscape="http://www.inkscape.org/namespaces/inkscape"
   width="1052.3622"
   height="744.09448"
   id="svg2851"
   version="1.1"
   inkscape:version="0.47 r22583"
   sodipodi:docname="p-n.svg"
   enable-background="new">
  <defs
     id="defs2853">
    <marker
       inkscape:stockid="Arrow1Mend"
       orient="auto"
       refY="0.0"
       refX="0.0"
       id="Arrow1Mend"
       style="overflow:visible;">
      <path
         id="path3677"
         d="M 0.0,0.0 L 5.0,-5.0 L -12.5,0.0 L 5.0,5.0 L 0.0,0.0 z "
         style="fill-rule:evenodd;stroke:#000000;stroke-width:1.0pt;marker-start:none;"
         transform="scale(0.4) rotate(180) translate(10,0)" />
    </marker>
    <marker
       inkscape:stockid="Arrow1Lend"
       orient="auto"
       refY="0.0"
       refX="0.0"
       id="Arrow1Lend"
       style="overflow:visible;">
      <path
         id="path3671"
         d="M 0.0,0.0 L 5.0,-5.0 L -12.5,0.0 L 5.0,5.0 L 0.0,0.0 z "
         style="fill-rule:evenodd;stroke:#000000;stroke-width:1.0pt;marker-start:none;"
         transform="scale(0.8) rotate(180) translate(12.5,0)" />
    </marker>
    <inkscape:perspective
       sodipodi:type="inkscape:persp3d"
       inkscape:vp_x="0 : 526.18109 : 1"
       inkscape:vp_y="0 : 1000 : 0"
       inkscape:vp_z="744.09448 : 526.18109 : 1"
       inkscape:persp3d-origin="372.04724 : 350.78739 : 1"
       id="perspective2859" />
    <inkscape:perspective
       id="perspective6445"
       inkscape:persp3d-origin="0.5 : 0.33333333 : 1"
       inkscape:vp_z="1 : 0.5 : 1"
       inkscape:vp_y="0 : 1000 : 0"
       inkscape:vp_x="0 : 0.5 : 1"
       sodipodi:type="inkscape:persp3d" />
  </defs>
  <sodipodi:namedview
     id="base"
     pagecolor="#ffffff"
     bordercolor="#666666"
     borderopacity="1.0"
     inkscape:pageopacity="0.0"
     inkscape:pageshadow="2"
     inkscape:zoom="1.4"
     inkscape:cx="261.04768"
     inkscape:cy="388.81292"
     inkscape:document-units="px"
     inkscape:current-layer="layer1"
     showgrid="false"
     showguides="true"
     inkscape:guide-bbox="true"
     inkscape:window-width="1280"
     inkscape:window-height="720"
     inkscape:window-x="-4"
     inkscape:window-y="-3"
     inkscape:window-maximized="1"
     inkscape:snap-grids="false" />
  <metadata
     id="metadata2856">
    <rdf:RDF>
      <cc:Work
         rdf:about="">
        <dc:format>image/svg+xml</dc:format>
        <dc:type
           rdf:resource="http://purl.org/dc/dcmitype/StillImage" />
        <dc:title></dc:title>
      </cc:Work>
    </rdf:RDF>
  </metadata>
  <g
     inkscape:label="Ebene 1"
     inkscape:groupmode="layer"
     id="layer1"
     transform="translate(0,-308.2677)">
    <path
       style="fill:none;stroke:#000000;stroke-width:1;stroke-linecap:butt;stroke-linejoin:miter;stroke-opacity:1;stroke-miterlimit:4;stroke-dasharray:6,6;stroke-dashoffset:0"
       d="m 81.428571,351.23734 355.714289,0"
       id="path2861"
       transform="translate(0,308.2677)" />
    <path
       style="fill:none;stroke:#000000;stroke-width:3;stroke-linecap:butt;stroke-linejoin:miter;stroke-opacity:1;stroke-miterlimit:4;stroke-dasharray:none;marker-start:none;marker-end:url(#Arrow1Mend)"
       d="m 525.71429,526.95163 0,-351.42858"
       id="path2863"
       transform="translate(0,308.2677)" />
    <path
       id="path2871"
       transform="translate(0,308.2677)"
       style="fill:none;stroke:#000000;stroke-width:1px;stroke-linecap:butt;stroke-linejoin:miter;stroke-opacity:1"
       d="m 437.14286,332.66591 -137.14286,0 -82.85714,-70 -128.571431,0"
       sodipodi:nodetypes="cccc" />
    <path
       id="path2887"
       style="fill:none;stroke:#000000;stroke-width:1px;stroke-linecap:butt;stroke-linejoin:miter;stroke-opacity:1"
       d="m 592.85714,626.6479 144.28572,0 61.42857,-35.71429 175.71428,0"
       sodipodi:nodetypes="cccc" />
    <path
       id="path2889"
       style="fill:none;stroke:#000000;stroke-width:1;stroke-linecap:butt;stroke-linejoin:miter;stroke-miterlimit:4;stroke-opacity:1;stroke-dasharray:6, 6;stroke-dashoffset:0"
       d="M 590,720.93361 733.57142,721.64789 803,617.50504 980,616.93361"
       sodipodi:nodetypes="cccc" />
    <path
       style="fill:none;stroke:#000000;stroke-width:1px;stroke-linecap:butt;stroke-linejoin:miter;stroke-opacity:1"
       d="m 971.42857,707.21933 -162.85714,0 -75.00001,35 -140.71428,0.71428"
       id="path4869" />
    <path
       style="fill:none;stroke:#000000;stroke-width:1px;stroke-linecap:butt;stroke-linejoin:miter;stroke-opacity:1"
       d="m 430,743.79075 -134.28571,0 -82.85715,-62.85714 -132.85714,0"
       id="path2891" />
    <flowRoot
       xml:space="preserve"
       id="flowRoot4859"
       style="font-size:22px;font-style:normal;font-weight:normal;fill:#000000;fill-opacity:1;stroke:none;font-family:Bitstream Vera Sans"
       transform="translate(0,316.2677)"><flowRegion
         id="flowRegion4861"><rect
           id="rect4863"
           width="34.345188"
           height="46.467018"
           x="543.4621"
           y="200.63242" /></flowRegion><flowPara
         id="flowPara4865"
         style="font-size:32px">E</flowPara></flowRoot>    <flowRoot
       xml:space="preserve"
       id="flowRoot4871"
       style="font-size:22px;font-style:normal;font-weight:normal;fill:#000000;fill-opacity:1;stroke:none;font-family:Bitstream Vera Sans"
       transform="translate(0,308.2677)"><flowRegion
         id="flowRegion4873"><rect
           id="rect4875"
           width="98.994949"
           height="60.609154"
           x="82.832512"
           y="432.9675" /></flowRegion><flowPara
         id="flowPara4877">p-Zone</flowPara></flowRoot>    <flowRoot
       xml:space="preserve"
       id="flowRoot4879"
       style="font-size:22px;font-style:normal;font-weight:normal;fill:#000000;fill-opacity:1;stroke:none;font-family:Bitstream Vera Sans"
       transform="translate(0,308.2677)"><flowRegion
         id="flowRegion4881"><rect
           id="rect4883"
           width="105.05586"
           height="46.467018"
           x="317.1879"
           y="469.33298" /></flowRegion><flowPara
         id="flowPara4885">n-Zone</flowPara></flowRoot>    <flowRoot
       xml:space="preserve"
       id="flowRoot4887"
       style="font-size:22px;font-style:normal;font-weight:normal;fill:#000000;fill-opacity:1;stroke:none;font-family:Bitstream Vera Sans"
       transform="translate(0,308.2677)"><flowRegion
         id="flowRegion4889"><rect
           id="rect4891"
           width="86.873116"
           height="48.487324"
           x="602.0509"
           y="469.33298" /></flowRegion><flowPara
         id="flowPara4893">p-Zone</flowPara></flowRoot>    <flowRoot
       xml:space="preserve"
       id="flowRoot4895"
       style="font-size:22px;font-style:normal;font-weight:normal;fill:#000000;fill-opacity:1;stroke:none;font-family:Bitstream Vera Sans"
       transform="translate(0,308.2677)"><flowRegion
         id="flowRegion4897"><rect
           id="rect4899"
           width="96.974648"
           height="56.568542"
           x="854.58905"
           y="441.04871" /></flowRegion><flowPara
         id="flowPara4901">n-Zone</flowPara></flowRoot>    <text
       xml:space="preserve"
       style="font-size:22px;font-style:normal;font-weight:normal;fill:#000000;fill-opacity:1;stroke:none;font-family:Bitstream Vera Sans"
       x="70.710678"
       y="705.22498"
       id="text4903"><tspan
         sodipodi:role="line"
         id="tspan4905"
         x="70.710678"
         y="705.22498">E<tspan
   style="font-size:18px"
   id="tspan6501"
   dy="5">v</tspan></tspan></text>
    <text
       xml:space="preserve"
       style="font-size:22px;font-style:normal;font-weight:normal;fill:#000000;fill-opacity:1;stroke:none;font-family:Bitstream Vera Sans"
       x="398.00009"
       y="682.46362"
       id="text4915"><tspan
         sodipodi:role="line"
         id="tspan4917"
         x="398.00009"
         y="682.46362"
         dy="0 9.2857151">E<tspan
   style="font-size:18"
   id="tspan6499">F</tspan></tspan></text>
    <text
       xml:space="preserve"
       style="font-size:22px;font-style:normal;font-weight:normal;fill:#000000;fill-opacity:1;stroke:none;font-family:Bitstream Vera Sans"
       x="614.17273"
       y="390.54108"
       id="text4919"
       transform="translate(0,308.2677)"><tspan
         sodipodi:role="line"
         id="tspan4921"
         x="614.17273"
         y="390.54108"
         dy="0 8.5714293">E<tspan
   style="font-size:18"
   id="tspan6493">F</tspan></tspan></text>
    <text
       xml:space="preserve"
       style="font-size:22px;font-style:normal;font-weight:normal;fill:#000000;fill-opacity:1;stroke:none;font-family:Bitstream Vera Sans"
       x="964.07129"
       y="731.6311"
       id="text4923"><tspan
         sodipodi:role="line"
         id="tspan4925"
         x="964.07129"
         y="731.6311"
         dy="0 7.1428576">E<tspan
   style="font-size:18"
   id="tspan6495">v</tspan></tspan></text>
    <text
       xml:space="preserve"
       style="font-size:22px;font-style:normal;font-weight:normal;fill:#000000;fill-opacity:1;stroke:none;font-family:Bitstream Vera Sans"
       x="961.88855"
       y="574.9306"
       id="text4927"><tspan
         sodipodi:role="line"
         id="tspan4929"
         x="961.88855"
         y="574.9306"
         dy="0 7.1428576">E<tspan
   style="font-size:18"
   id="tspan6497">c</tspan></tspan></text>
    <g
       id="g4956"
       transform="translate(-4,70)">
      <path
         transform="matrix(0.38274152,0,0,0.38274152,189.07362,451.58454)"
         d="m 357.59399,258.21112 c 0,13.9473 -11.30651,25.25381 -25.25381,25.25381 -13.9473,0 -25.25381,-11.30651 -25.25381,-25.25381 0,-13.9473 11.30651,-25.25381 25.25381,-25.25381 13.9473,0 25.25381,11.30651 25.25381,25.25381 z"
         sodipodi:ry="25.253813"
         sodipodi:rx="25.253813"
         sodipodi:cy="258.21112"
         sodipodi:cx="332.34018"
         id="path4952"
         style="fill:none;stroke:#ff0000;stroke-width:4.04994678;stroke-miterlimit:4;stroke-opacity:1;stroke-dasharray:24.29968215, 24.29968215;stroke-dashoffset:0"
         sodipodi:type="arc" />
      <rect
         y="548.01691"
         x="310.73074"
         height="4.5108819"
         width="11.892326"
         id="rect4954"
         style="fill:#000000;fill-opacity:1;stroke:#ff0000;stroke-width:0.38274151;stroke-miterlimit:4;stroke-opacity:1;stroke-dasharray:2.2964491, 2.2964491;stroke-dashoffset:0" />
    </g>
    <use
       x="0"
       y="0"
       xlink:href="#g4956"
       id="use4975"
       width="1052.3622"
       height="744.09448" />
    <use
       x="0"
       y="0"
       xlink:href="#use4975"
       id="use4977"
       transform="translate(46,0)"
       width="1052.3622"
       height="744.09448" />
    <use
       x="0"
       y="0"
       xlink:href="#use4977"
       id="use4979"
       transform="translate(50,0)"
       width="1052.3622"
       height="744.09448" />
    <g
       transform="translate(516,20)"
       id="g4981">
      <path
         sodipodi:type="arc"
         style="fill:none;stroke:#ff0000;stroke-width:4.04994678;stroke-miterlimit:4;stroke-opacity:1;stroke-dasharray:24.29968215, 24.29968215;stroke-dashoffset:0"
         id="path4983"
         sodipodi:cx="332.34018"
         sodipodi:cy="258.21112"
         sodipodi:rx="25.253813"
         sodipodi:ry="25.253813"
         d="m 357.59399,258.21112 c 0,13.9473 -11.30651,25.25381 -25.25381,25.25381 -13.9473,0 -25.25381,-11.30651 -25.25381,-25.25381 0,-13.9473 11.30651,-25.25381 25.25381,-25.25381 13.9473,0 25.25381,11.30651 25.25381,25.25381 z"
         transform="matrix(0.38274152,0,0,0.38274152,189.07362,451.58454)" />
      <rect
         style="fill:#000000;fill-opacity:1;stroke:#ff0000;stroke-width:0.38274151;stroke-miterlimit:4;stroke-opacity:1;stroke-dasharray:2.2964491, 2.2964491;stroke-dashoffset:0"
         id="rect4985"
         width="11.892326"
         height="4.5108819"
         x="310.73074"
         y="548.01691" />
    </g>
    <use
       height="744.09448"
       width="1052.3622"
       id="use4987"
       xlink:href="#g4956"
       y="0"
       x="0"
       transform="translate(520,-50)" />
    <use
       height="744.09448"
       width="1052.3622"
       transform="translate(566,-50)"
       id="use4989"
       xlink:href="#use4975"
       y="0"
       x="0" />
    <use
       height="744.09448"
       width="1052.3622"
       transform="translate(570,-50)"
       id="use4991"
       xlink:href="#use4977"
       y="0"
       x="0" />
    <g
       id="g4993"
       transform="matrix(0.8660254,-0.5,0.5,0.8660254,195.59713,279.87832)">
      <path
         transform="matrix(0.38274152,0,0,0.38274152,189.07362,451.58454)"
         d="m 357.59399,258.21112 c 0,13.9473 -11.30651,25.25381 -25.25381,25.25381 -13.9473,0 -25.25381,-11.30651 -25.25381,-25.25381 0,-13.9473 11.30651,-25.25381 25.25381,-25.25381 13.9473,0 25.25381,11.30651 25.25381,25.25381 z"
         sodipodi:ry="25.253813"
         sodipodi:rx="25.253813"
         sodipodi:cy="258.21112"
         sodipodi:cx="332.34018"
         id="path4995"
         style="fill:none;stroke:#ff0000;stroke-width:4.04994678;stroke-miterlimit:4;stroke-opacity:1;stroke-dasharray:24.29968215, 24.29968215;stroke-dashoffset:0"
         sodipodi:type="arc" />
      <rect
         y="548.01691"
         x="310.73074"
         height="4.5108819"
         width="11.892326"
         id="rect4997"
         style="fill:#000000;fill-opacity:1;stroke:#ff0000;stroke-width:0.38274151;stroke-miterlimit:4;stroke-opacity:1;stroke-dasharray:2.2964491, 2.2964491;stroke-dashoffset:0" />
    </g>
    <use
       transform="matrix(0.8660254,-0.5,0.5,0.8660254,164.06124,217.25654)"
       x="0"
       y="0"
       xlink:href="#g4956"
       id="use4999"
       width="1052.3622"
       height="744.09448" />
    <use
       x="0"
       y="0"
       xlink:href="#use4975"
       id="use5001"
       transform="matrix(0.8660254,-0.5,0.5,0.8660254,203.8984,194.25654)"
       width="1052.3622"
       height="744.09448" />
    <g
       id="g5205">
      <rect
         y="695.04071"
         x="102.32143"
         height="24.464285"
         width="24.107143"
         id="rect5005"
         style="fill:none;stroke:#ff0000;stroke-width:2;stroke-miterlimit:4;stroke-opacity:1;stroke-dasharray:none;stroke-dashoffset:0" />
      <path
         id="path5193"
         d="m 106.33929,707.27285 16.07142,0"
         style="fill:none;stroke:#000000;stroke-width:1px;stroke-linecap:butt;stroke-linejoin:miter;stroke-opacity:1" />
      <path
         id="path5195"
         d="m 114.375,714.32642 0,-14.10714"
         style="fill:none;stroke:#000000;stroke-width:1px;stroke-linecap:butt;stroke-linejoin:miter;stroke-opacity:1" />
    </g>
    <use
       x="0"
       y="0"
       xlink:href="#g5205"
       id="use5222"
       transform="translate(38.000008,0)"
       width="1052.3622"
       height="744.09448" />
    <use
       x="0"
       y="0"
       xlink:href="#use5222"
       id="use5224"
       transform="translate(38.000008,0)"
       width="1052.3622"
       height="744.09448" />
    <g
       id="g5226"
       transform="translate(590.00002,56)">
      <rect
         style="fill:none;stroke:#ff0000;stroke-width:2;stroke-miterlimit:4;stroke-opacity:1;stroke-dasharray:none;stroke-dashoffset:0"
         id="rect5228"
         width="24.107143"
         height="24.464285"
         x="102.32143"
         y="695.04071" />
      <path
         style="fill:none;stroke:#000000;stroke-width:1px;stroke-linecap:butt;stroke-linejoin:miter;stroke-opacity:1"
         d="m 106.33929,707.27285 16.07142,0"
         id="path5230" />
      <path
         style="fill:none;stroke:#000000;stroke-width:1px;stroke-linecap:butt;stroke-linejoin:miter;stroke-opacity:1"
         d="m 114.375,714.32642 0,-14.10714"
         id="path5232" />
    </g>
    <use
       height="744.09448"
       width="1052.3622"
       transform="translate(539.00002,56)"
       id="use5234"
       xlink:href="#g5205"
       y="0"
       x="0" />
    <use
       height="744.09448"
       width="1052.3622"
       transform="translate(450.00004,56)"
       id="use5236"
       xlink:href="#use5222"
       y="0"
       x="0" />
    <use
       x="0"
       y="0"
       xlink:href="#use5236"
       id="use5238"
       transform="translate(147.99997,-4)"
       width="1052.3622"
       height="744.09448" />
    <use
       x="0"
       y="0"
       xlink:href="#use5238"
       id="use5240"
       transform="translate(42,-14)"
       width="1052.3622"
       height="744.09448" />
    <path
       style="fill:none;stroke:#000000;stroke-width:1px;stroke-linecap:butt;stroke-linejoin:miter;stroke-opacity:1;marker-start:none;marker-end:url(#Arrow1Lend)"
       d="m 751.55349,319.83041 0,86.87312"
       id="path5242"
       transform="translate(0,308.2677)" />
    <path
       style="fill:none;stroke:#000000;stroke-width:1px;stroke-linecap:butt;stroke-linejoin:miter;stroke-opacity:1;marker-end:url(#Arrow1Lend)"
       d="m 785.89868,295.58675 0,82.83251"
       id="path5244"
       transform="translate(0,308.2677)" />
    <g
       id="g6462"
       transform="translate(18,-30)">
      <path
         d="m 772.95066,658.52058 c 0.015,-0.5425 0.015,-1.085 0.015,-1.62625 0.02,-0.69375 -0.0337,-1.3875 0.0388,-2.075 0.1375,-0.88875 0.62,-1.62625 1.1625,-2.32 1.17125,-1.50375 2.24125,-1.885 4.0375,-2.915 0.7375,-0.25875 1.53375,-0.3025 2.31,-0.33625 0.78125,-0.03 1.5575,-0.02 2.32875,0.0825 0.9425,0.1225 1.7625,0.59125 2.58875,1.02 0.57625,0.3175 1.09875,0.69875 1.67375,1.01625 0.64,0.37625 1.11875,0.95625 1.6125,1.50375 0.41,0.46375 0.77625,0.96625 1.18625,1.43125 0.36625,0.41875 0.795,0.77125 1.16625,1.18125 0.28375,0.25375 0.46875,0.595 0.7325,0.86875 0.1025,0.1025 0.29375,0.24875 0.405,0.3375 0.40625,0.2925 0.82625,0.54125 1.30875,0.67875 0.68875,0.13625 1.3875,0.0925 2.08,0.0288 1.29875,-0.18 2.53,-0.635 3.76,-1.06375 0.57625,-0.23 1.1475,-0.45 1.7,-0.72375 0.175,-0.0875 0.6875,-0.37 0.5175,-0.2725 -2.06125,1.18625 -2.16375,1.28375 -1.23125,0.62 0.7675,-0.56625 1.47,-1.22125 2.1975,-1.83625 0.47375,-0.37625 0.9525,-0.7425 1.42625,-1.1225 1.035,-1.03125 2.31875,-1.87125 3.75,-2.2075 0.79125,-0.14625 1.59125,-0.1175 2.3925,-0.1125 1.47375,-0.0925 2.8075,0.3425 4.16,0.86875 1.3475,0.5375 2.6075,1.245 3.8725,1.93375 0.59,0.35625 1.1025,0.81625 1.5375,1.3475 0.37625,0.47875 0.7475,0.9625 1.1425,1.43125 0.49875,0.62 0.99625,1.24 1.61625,1.7525 0.70375,0.5125 1.52875,0.69875 2.3725,0.81125 1.1925,0.16625 2.335,-0.19125 3.4425,-0.58625 0.23,-0.0925 0.465,-0.18125 0.68875,-0.27875 0.16125,-0.0725 1.23125,-0.59 1.3825,-0.66875 0.215,-0.1175 0.84875,-0.4925 0.63375,-0.37125 -1.3025,0.7375 -2.23625,1.29375 -1.01,0.56625 0.4,-0.25375 0.815,-0.4825 1.20625,-0.74625 0.16625,-0.1125 0.3175,-0.245 0.4875,-0.3475 0.82125,-0.4775 1.64625,-0.95125 2.46625,-1.425 0.405,-0.15625 0.845,-0.195 1.26,-0.3275 0.205,-0.0538 0.4,-0.1025 0.595,-0.185 l -2.08,1.62 0,0 c -0.2,0.0587 -0.405,0.1125 -0.605,0.17125 -0.41,0.0975 -0.84,0.16125 -1.21625,0.37125 0.67375,-0.395 1.34375,-0.79625 2.02125,-1.18125 0.0838,-0.0487 -0.15625,0.1025 -0.23375,0.15625 -0.49375,0.35125 -1.00625,0.67375 -1.52875,0.97625 -1.9625,1.1675 -3.91125,2.4175 -6.05875,3.2225 -1.1575,0.38625 -2.335,0.7225 -3.56,0.5225 -0.88875,-0.13125 -1.74375,-0.37125 -2.46625,-0.9275 -0.625,-0.5225 -1.1225,-1.1625 -1.645,-1.7825 -0.4,-0.46375 -0.78625,-0.9425 -1.1675,-1.425 -0.405,-0.50875 -0.87875,-0.9475 -1.43,-1.295 -1.23125,-0.7225 -2.47125,-1.415 -3.80375,-1.93375 -0.59625,-0.22375 -0.9225,-0.36125 -1.53875,-0.5175 -0.85875,-0.21375 -1.7375,-0.2775 -2.61625,-0.24375 -0.80125,0.015 -1.6075,0.005 -2.38875,0.195 -0.1025,0.03 -0.205,0.0537 -0.3075,0.0937 -0.1025,0.0387 -0.39,0.19 -0.2975,0.13125 3.47125,-2.14875 2.1975,-1.45 1.5475,-0.78625 -0.0625,0.0637 -0.12625,0.1375 -0.19,0.205 -0.48875,0.37125 -0.9525,0.77125 -1.455,1.12375 -0.7425,0.615 -1.45,1.27375 -2.21625,1.865 -1.63125,1.225 -3.4625,2.1825 -5.37625,2.88125 -1.245,0.42875 -2.5,0.86875 -3.81875,1.025 -0.7275,0.0638 -1.48,0.12625 -2.1925,-0.0737 -0.4875,-0.18 -0.9325,-0.44875 -1.3525,-0.76125 -0.44375,-0.36625 -0.78125,-0.81125 -1.1525,-1.245 -0.38,-0.405 -0.82,-0.7525 -1.17625,-1.1825 -0.405,-0.46875 -0.7525,-0.98125 -1.1625,-1.445 -0.47375,-0.5275 -0.9525,-1.07375 -1.58625,-1.41625 -0.5625,-0.32125 -1.08,-0.7125 -1.64625,-1.025 -0.8,-0.435 -1.61125,-0.855 -2.52875,-0.9475 -0.77125,-0.0775 -1.54375,-0.0637 -2.32,-0.0337 -0.76125,0.0387 -1.5425,0.0925 -2.24125,0.43 3.73625,-2.1975 1.9925,-1.27 1.31375,-0.70875 -0.35125,0.28875 -0.66375,0.62 -0.9475,0.9775 -0.54625,0.63875 -1.025,1.3325 -1.19625,2.1725 -0.1075,0.67375 -0.0288,1.3625 -0.0488,2.04625 0,0.53625 0,1.07375 0.02,1.61125 l -2.36375,1.20115 z"
         style="fill:#ff0000;fill-opacity:1;fill-rule:nonzero;stroke:none"
         id="path6375" />
      <path
         d="m 825.72941,646.44933 c 1.11375,0.50375 2.1875,1.09375 3.28125,1.64125 1.51375,0.76625 3.04625,1.51375 4.585,2.24125 1.1625,0.54125 2.23625,1.235 3.31,1.93375 0.98125,0.7325 2.03625,1.3375 3.10125,1.92875 0.41,0.23375 0.9025,0.31625 1.26875,0.625 0.25,0.44875 -0.35125,0.76125 -0.65375,0.97125 -0.46375,0.3175 -0.86,0.54625 -1.3475,0.845 -2.8075,1.63 2.8225,-1.63625 -3.92625,2.265 -0.3075,0.17625 1.22125,-0.7325 0.9275,-0.5275 -0.405,0.27875 -0.84375,0.50375 -1.26375,0.7625 -0.81625,0.5025 -1.60625,1.015 -2.4125,1.5325 -1.1525,0.7625 -2.305,1.52875 -3.40875,2.36375 l -2.3975,0.9575 0,0 c 1.1525,-0.875 2.37875,-1.64625 3.575,-2.45125 1.215,-0.7775 2.42125,-1.5675 3.6625,-2.3 1.06875,-0.635 2.1525,-1.25 3.2225,-1.88 0.38,-0.22 -0.7625,0.43875 -1.1425,0.65875 -0.27875,0.16125 0.55625,-0.3175 0.83,-0.47875 0.77625,-0.47375 0.59,-0.35125 1.28875,-0.805 0.13625,-0.0925 0.27375,-0.18125 0.41,-0.27375 0.0825,-0.0587 0.15625,-0.13125 0.24375,-0.18 0.15625,-0.0837 0.1225,0.0288 0.1425,-0.0537 -0.3525,-0.27875 -0.82625,-0.36125 -1.1925,-0.62125 -1.04,-0.625 -2.065,-1.26875 -3.05625,-1.9725 -1.07375,-0.67375 -2.1575,-1.3475 -3.3,-1.90375 -1.51375,-0.7575 -3.0275,-1.52875 -4.55125,-2.26625 -1.11375,-0.52625 -2.2075,-1.1325 -3.37875,-1.5175 l 2.1825,-1.495 z"
         style="fill:#ff0000;fill-opacity:1;fill-rule:nonzero;stroke:none"
         id="path6377" />
    </g>
    <use
       x="0"
       y="0"
       xlink:href="#g6462"
       id="use6466"
       transform="translate(-128,54)"
       width="1052.3622"
       height="744.09448" />
    <use
       x="0"
       y="0"
       xlink:href="#use6466"
       id="use6468"
       transform="translate(100,-20)"
       width="1052.3622"
       height="744.09448" />
    <use
       x="0"
       y="0"
       xlink:href="#use6468"
       id="use6470"
       transform="translate(0,24)"
       width="1052.3622"
       height="744.09448" />
    <text
       xml:space="preserve"
       style="font-size:22px;font-style:normal;font-weight:normal;fill:#000000;fill-opacity:1;stroke:none;font-family:Bitstream Vera Sans"
       x="72.428574"
       y="555.93359"
       id="text6503"><tspan
         sodipodi:role="line"
         id="tspan6505"
         x="72.428574"
         y="555.93359"
         dy="0 7.1428576">E<tspan
   style="font-size:18px"
   id="tspan6507">c</tspan></tspan></text>
  </g>
</svg>
